<?xml version="1.0" encoding="utf-8"?>
<!-- Generator: Adobe Illustrator 16.0.0, SVG Export Plug-In . SVG Version: 6.00 Build 0)  -->
<!DOCTYPE svg PUBLIC "-//W3C//DTD SVG 1.1//EN" "http://www.w3.org/Graphics/SVG/1.1/DTD/svg11.dtd">
<svg version="1.1" id="Layer_1" xmlns="http://www.w3.org/2000/svg" xmlns:xlink="http://www.w3.org/1999/xlink" x="0px" y="0px"
	 width="277.5px" height="231px" viewBox="0 -144 277.5 231" enable-background="new 0 -144 277.5 231" xml:space="preserve">
<g>
	<path fill-rule="evenodd" clip-rule="evenodd" fill="#104938" d="M255.509,63.922c0-50.231,0-100.316,0-150.709
		c-51.666,0-103.314,0-155.138,0c0-4.129,0-7.954,0-11.963c55.682,0,111.295,0,167.078,0c0,58.225,0,116.324,0,174.601
		c-85.588,0-171.086,0-256.803,0c0-58.105,0-116.268,0-174.774c1.907,0,3.815,0,5.724,0c1.917,0,3.835,0,6.039,0
		c0,54.403,0,108.532,0,162.845C100.255,63.922,177.81,63.922,255.509,63.922z"/>
	<path fill-rule="evenodd" clip-rule="evenodd" fill="#104938" d="M235.063-23.258c3.897,3.763,7.653,7.333,11.32,10.993
		c0.477,0.476,0.696,1.412,0.697,2.135c0.03,21.14,0.019,42.279,0.006,63.419c0,0.259-0.084,0.518-0.172,1.011
		c-54.156,0-108.334,0-163.051,0c2.95-2.624,5.541-4.947,8.151-7.248c22.996-20.264,46.023-40.493,68.942-60.843
		c1.953-1.735,3.076-1.602,5.027-0.176c9.454,6.905,19.024,13.65,28.755,20.597C208.082-3.261,221.429-13.153,235.063-23.258z"/>
	<path fill-rule="evenodd" clip-rule="evenodd" fill="#104938" d="M30.894-66.002c0-15.329-0.01-30.658,0.004-45.987
		c0.007-6.835,2.512-12.767,7.062-17.729c7.818-8.526,21.963-7.499,29.503,2.003c3.867,4.873,5.774,10.52,5.771,16.66
		c-0.016,29.951-0.125,59.902-0.282,89.853c-0.034,6.512-4.546,10.822-11.072,10.973c-8.805,0.204-13.289-3.402-14.058-12.139
		c-0.493-5.59-0.117-11.257-0.117-16.89c-0.003-17.179,0-34.358,0.006-51.537c0-0.792-0.022-1.596,0.105-2.371
		c0.332-2.003,1.579-3.153,3.589-3.222c2.177-0.074,3.437,1.212,3.859,3.248c0.193,0.933,0.087,1.931,0.087,2.899
		c-0.002,20.262-0.029,40.524,0.017,60.787c0.005,2.359,0.201,4.76,0.682,7.065c0.437,2.095,1.751,3.648,4.199,3.692
		c2.554,0.045,3.912-1.49,4.489-3.699c0.441-1.686,0.693-3.472,0.697-5.214c0.058-28.72,0.149-57.439,0.033-86.158
		c-0.042-10.24-8.288-15.92-17.942-12.759c-5.11,1.673-7.491,5.601-8.439,10.559c-0.395,2.062-0.558,4.198-0.56,6.301
		c-0.033,29.688-0.039,59.377-0.007,89.065C38.536-6.825,48.906,2.518,62.604,1.194c13.552-1.309,21.288-9.801,21.298-23.457
		c0.018-24.403,0.005-48.806,0.003-73.208c0-4.14,1.203-6.034,3.846-6.032c2.582,0.003,3.769,1.884,3.77,6.086
		c0.008,24.932,0.004,49.863,0.007,74.794c0,5.07-0.744,9.995-2.798,14.673C84.064,4.673,73.912,10.688,61.433,10.216
		C42.944,9.518,31.017-2.802,30.963-21.34c-0.043-14.888-0.009-29.775-0.009-44.663C30.934-66.002,30.914-66.002,30.894-66.002z"/>
</g>
</svg>
