<?xml version="1.0" encoding="utf-8"?>
<!-- Generator: Adobe Illustrator 16.0.0, SVG Export Plug-In . SVG Version: 6.00 Build 0)  -->
<!DOCTYPE svg PUBLIC "-//W3C//DTD SVG 1.1//EN" "http://www.w3.org/Graphics/SVG/1.1/DTD/svg11.dtd">
<svg version="1.1" id="Isolation_Mode" xmlns="http://www.w3.org/2000/svg" xmlns:xlink="http://www.w3.org/1999/xlink" x="0px"
	 y="0px" width="500px" height="500px" viewBox="0 0 500 500" enable-background="new 0 0 500 500" xml:space="preserve">
<g>
	<path fill-rule="evenodd" clip-rule="evenodd" fill="#FFFFFF" d="M484.325,137.995c-1.292-11.52-4.399-22.518-9.032-33.119
		c-4.71-10.779-10.731-20.814-18.879-29.248c-3.311-3.428-6.354-7.157-9.674-10.591c-5.731-3.615-11.462-7.069-16.934-11.067
		c-10.266-3.629-20.051-8.677-30.353-12.214c-6.339-2.177-13.293-2.564-19.971-3.755H366.74c-0.865,0.261-1.717,0.677-2.6,0.76
		c-28.136,2.633-52.004,14.211-71.754,34.321C213.203,153.704,134.033,234.342,54.904,315.02c-4.452,4.54-8.776,9.264-12.665,14.284
		c-15.798,20.4-24.78,42.958-20.506,69.284c5.683,35.006,38.52,71.532,90.229,64.936c23.567-3.006,43.265-13.843,59.846-30.691
		c63.836-64.87,127.727-129.687,191.552-194.566c16.582-16.855,20.249-43.018,9.171-63.906
		c-15.985-30.141-57.16-35.66-81.689-10.765c-53.018,53.808-105.924,107.726-158.873,161.604c-0.743,0.755-1.539,1.486-2.148,2.343
		c-2.644,3.713-2.868,7.596-0.377,11.441c2.256,3.482,6.84,5.262,10.798,3.698c2.279-0.899,4.333-2.721,6.102-4.51
		c26.545-26.869,53.04-53.786,79.516-80.724c26.369-26.828,52.644-53.75,79.076-80.517c13.594-13.768,33.624-13.219,46.714,1.001
		c12.579,13.665,12.22,32.065-1.506,46.039c-64.949,66.117-129.925,132.205-195.216,197.982
		c-6.707,6.757-15.041,12.403-23.539,16.781c-27.216,14.021-55.256,8.734-75.718-13.31c-19.379-20.876-22.629-45.047-8.186-69.558
		c5.403-9.169,12.224-17.794,19.676-25.418c80.265-82.11,160.711-164.047,241.286-245.855c22.667-23.013,50.69-30.577,82.091-25.367
		c22.785,3.781,40.997,15.876,55.314,33.832c17.101,21.444,24.173,45.816,20.42,73.063c-3.049,22.126-13.612,40.382-29.156,56.193
		c-68.378,69.551-136.626,139.229-204.917,208.864c-1.168,1.19-2.412,2.331-3.415,3.652c-2.788,3.666-2.529,8.686,0.503,12.139
		c2.874,3.271,7.761,4.343,11.573,2.156c1.927-1.105,3.589-2.765,5.167-4.374c64.511-65.693,129.008-131.401,193.477-197.138
		c6.583-6.711,13.432-13.237,19.371-20.492C480.145,201.147,488.052,171.201,484.325,137.995z"/>
</g>
</svg>
