<?xml version="1.0" encoding="utf-8"?>
<!-- Generator: Adobe Illustrator 16.0.0, SVG Export Plug-In . SVG Version: 6.00 Build 0)  -->
<!DOCTYPE svg PUBLIC "-//W3C//DTD SVG 1.1//EN" "http://www.w3.org/Graphics/SVG/1.1/DTD/svg11.dtd">
<svg version="1.1" id="Layer_1" xmlns="http://www.w3.org/2000/svg" xmlns:xlink="http://www.w3.org/1999/xlink" x="0px" y="0px"
	 width="512px" height="512px" viewBox="0 0 512 512" enable-background="new 0 0 512 512" xml:space="preserve">
<g>
	<path fill="#1350FF" d="M256.7,168.997c-68.92,0-137.84,0.008-206.76-0.039c-2.042,0-4.137-0.368-6.114-0.908
		c-5.37-1.465-7.583-9.815-2.562-13.784c2.142-1.692,4.572-3.064,6.993-4.349c47.026-24.938,94.072-49.838,141.108-74.756
		c19.802-10.49,39.61-20.974,59.376-31.528c5.063-2.703,9.938-2.706,14.988,0.001c13.332,7.149,26.706,14.219,40.072,21.302
		c37.935,20.099,75.873,40.189,113.811,60.282c16.304,8.635,32.624,17.24,48.896,25.934c1.905,1.017,3.697,2.363,5.276,3.841
		c2.402,2.246,2.749,5.125,1.622,8.142c-1.124,3.008-3.272,4.968-6.453,5.585c-1.319,0.256-2.704,0.266-4.06,0.267
		C394.162,168.998,325.432,168.997,256.7,168.997z M426.215,151.308c0.021-0.068,0.043-0.137,0.063-0.205
		c-0.824-0.512-1.647-1.028-2.474-1.537c-5.562-3.423-11.005-7.057-16.71-10.217c-9.139-5.064-18.457-9.805-27.689-14.701
		c-38.863-20.604-77.736-41.187-116.56-61.862c-4.507-2.399-8.659-2.355-13.102,0.007c-33.643,17.881-67.338,35.665-100.976,53.558
		c-19.817,10.541-39.896,20.598-59.18,32.121c-1.5,0.896-3.021,1.757-4.533,2.634c0.024,0.068,0.05,0.136,0.074,0.205
		C198.824,151.308,312.52,151.308,426.215,151.308z"/>
	<path fill="#1350FF" d="M340.949,291.047c0-12.96,0.014-25.919-0.006-38.879c-0.016-10.502-0.058-21.004-0.116-31.507
		c-0.022-4.16-1.545-7.635-4.822-10.306c-0.84-0.685-1.611-1.499-2.26-2.368c-3.874-5.19-0.982-12.33,5.411-13.396
		c0.965-0.16,1.952-0.229,2.932-0.23c14.469-0.014,28.94-0.009,43.411-0.009c8.803,0,17.605-0.01,26.409,0.006
		c2.639,0.005,5.107,0.6,7.093,2.48c3.219,3.05,3.585,7.834,0.816,11.278c-0.771,0.963-1.712,1.81-2.658,2.611
		c-2.915,2.469-4.441,5.58-4.454,9.401c-0.03,9.182-0.052,18.362-0.06,27.543c-0.023,26.599-0.046,53.198-0.055,79.798
		c-0.004,9.898,0.031,19.798,0.056,29.697c0.004,1.587,0.064,3.173,0.05,4.758c-0.037,3.86,1.587,6.916,4.449,9.399
		c0.797,0.692,1.607,1.38,2.316,2.157c2.243,2.463,2.756,5.3,1.647,8.426c-1.111,3.128-3.361,4.942-6.582,5.567
		c-0.81,0.157-1.65,0.217-2.477,0.217c-19.12,0.024-38.238,0.037-57.355,0.044c-4.421,0.002-8.842-0.012-13.262-0.038
		s-7.695-2.165-8.979-5.796c-0.972-2.75-0.583-5.302,1.17-7.604c0.727-0.954,1.551-1.876,2.48-2.627
		c3.274-2.651,4.64-6.148,4.721-10.238c0.058-2.87,0.06-5.74,0.063-8.611c0.022-18.628,0.039-37.254,0.059-55.881
		C340.95,294.976,340.949,293.011,340.949,291.047z M394.939,369.939c0-52.685,0-105.212,0-157.773c-12.065,0-24.054,0-36.139,0
		c0,0.504,0,0.915,0,1.326c0,51.685,0.005,103.369-0.028,155.053c0,1.203,0.374,1.421,1.471,1.417
		c11.107-0.037,22.216-0.022,33.322-0.022C393.978,369.939,394.39,369.939,394.939,369.939z"/>
	<path fill="#1350FF" d="M256.263,387.697c-11.145,0-22.289,0.002-33.434-0.003c-1.169,0-2.34-0.026-3.509-0.079
		c-6.118-0.283-9.97-7.315-6.823-12.587c0.76-1.271,1.833-2.406,2.94-3.405c3.208-2.897,4.92-6.383,4.915-10.761
		c-0.018-17.301,0.02-34.603,0.042-51.905c0.014-11.295,0.053-22.59,0.052-33.885c-0.001-12.051-0.03-24.101-0.054-36.152
		c-0.011-6.005-0.03-12.011-0.058-18.017c-0.018-4.176-1.654-7.611-4.793-10.349c-0.511-0.447-1.028-0.896-1.484-1.394
		c-2.464-2.686-3.499-5.701-2.051-9.256c1.46-3.583,4.247-5.309,7.995-5.497c2.714-0.138,5.438-0.092,8.158-0.091
		c12.579,0.003,25.16,0.024,37.74,0.033c8.272,0.006,16.545-0.017,24.816,0.02c1.235,0.005,2.489,0.164,3.697,0.422
		c3.101,0.662,5.122,2.576,6.171,5.563c0.879,2.497,0.658,4.865-0.922,6.994c-0.848,1.144-1.792,2.274-2.892,3.166
		c-3.284,2.666-4.659,6.173-4.667,10.254c-0.063,29.58-0.098,59.158-0.124,88.737c-0.018,17.49-0.002,34.981-0.006,52.473
		c-0.001,4.377,1.736,7.803,5.431,10.224c3.174,2.079,4.376,5.351,3.357,8.959c-1.105,3.913-4.019,6.341-7.785,6.456
		c-1.698,0.052-3.397,0.077-5.097,0.079C277.341,387.701,266.802,387.697,256.263,387.697z M238.191,212.079
		c0,0.452,0,0.787,0,1.122c0,51.836,0.003,103.671-0.021,155.507c-0.002,1.025,0.315,1.254,1.285,1.25
		c11.184-0.03,22.368-0.035,33.55,0.006c1.105,0.004,1.371-0.322,1.369-1.398c-0.026-51.723-0.022-103.444-0.022-155.168
		c0-0.432,0-0.863,0-1.318C262.223,212.079,250.295,212.079,238.191,212.079z"/>
	<path fill="#1350FF" d="M135.428,194.351c11.597,0,23.195-0.016,34.792,0.021c1.308,0.004,2.653,0.158,3.913,0.494
		c6.163,1.648,8.339,8.585,4.241,13.465c-0.747,0.89-1.634,1.675-2.527,2.424c-2.803,2.352-4.261,5.294-4.261,8.987
		c-0.007,38.194-0.034,76.387-0.046,114.58c-0.002,9.293,0.061,18.588,0.039,27.88c-0.007,3.709,1.535,6.615,4.238,9.021
		c0.9,0.804,1.837,1.59,2.611,2.505c2.125,2.522,2.654,5.391,1.436,8.478c-1.215,3.078-3.577,4.9-6.813,5.269
		c-2.653,0.3-5.351,0.246-8.03,0.251c-8.65,0.016-17.301-0.025-25.952-0.025c-11.031,0.002-22.063,0.037-33.094,0.025
		c-2.376-0.003-4.766-0.012-7.125-0.243c-4.136-0.402-6.714-2.569-7.787-6.204c-0.717-2.426-0.353-4.661,1.197-6.635
		c0.856-1.092,1.773-2.197,2.862-3.039c3.385-2.612,4.619-6.148,4.652-10.23c0.052-6.345,0.062-12.691,0.063-19.038
		c0.005-32.603,0.01-65.205-0.002-97.809c-0.003-8.082-0.048-16.163-0.117-24.246c-0.033-3.893-1.665-7.063-4.583-9.609
		c-0.851-0.743-1.72-1.494-2.426-2.366c-4.128-5.093-1.246-12.639,5.225-13.715c0.925-0.154,1.875-0.229,2.815-0.23
		C112.31,194.345,123.869,194.351,135.428,194.351z M153.604,370.24c0-52.818,0-105.428,0-158.103c-12.035,0-23.99,0-35.976,0
		c-0.056,0.263-0.135,0.479-0.146,0.698c-0.143,3.017-0.394,6.034-0.396,9.052c-0.024,45.45-0.019,90.899-0.02,136.348
		c0,0.943-0.014,1.889-0.06,2.831c-0.172,3.47,1.506,6.026,4.148,7.977c0.823,0.609,2.007,0.915,3.053,1
		c2.33,0.187,4.677,0.185,7.019,0.191c7.026,0.02,14.053,0.006,21.08,0.006C152.713,370.24,153.118,370.24,153.604,370.24z"/>
	<path fill="#1350FF" d="M256.442,459.49c68.386,0,136.772,0,205.158,0c4.322,0,7.191,1.784,8.714,5.409
		c2.197,5.232-1.525,11.296-7.189,11.702c-0.528,0.039-1.058,0.041-1.586,0.041c-136.282,0.002-272.564,0.005-408.846-0.018
		c-1.574,0-3.166-0.196-4.718-0.472c-4.325-0.766-6.256-4.017-6.429-8.146c-0.155-3.764,2.578-7.321,6.267-8.166
		c1.598-0.366,3.293-0.349,4.947-0.41c1.394-0.053,2.793,0.056,4.191,0.057C123.447,459.49,189.944,459.49,256.442,459.49z"/>
	<path fill="#1350FF" d="M256.04,432.133c-49.193,0-98.386,0.006-147.58-0.002c-13.638-0.005-27.277-0.031-40.915-0.098
		c-1.611-0.008-3.262-0.158-4.818-0.551c-3.846-0.969-6.431-4.669-6.178-8.561c0.267-4.094,3.377-7.495,7.39-7.979
		c1.495-0.181,3.012-0.256,4.518-0.256c125.101-0.013,250.2-0.014,375.301,0.011c1.801,0,3.633,0.16,5.396,0.515
		c4.064,0.813,6.395,3.575,6.672,7.637c0.26,3.773-2.059,7.405-5.705,8.618c-1.333,0.444-2.81,0.64-4.219,0.64
		C382.613,432.138,319.327,432.133,256.04,432.133z"/>
</g>
</svg>
