<svg xmlns="http://www.w3.org/2000/svg" width="28.17" height="24" viewBox="0 0 28.17 24">
  <path id="buy-trade" d="M529.2,2320.37h12.385a1.862,1.862,0,0,0,1.707-1.119l3.716-8.608a1.829,1.829,0,0,0-.157-1.74,1.865,1.865,0,0,0-1.551-.83H524.867a1.849,1.849,0,0,0-1,.307l-1.246-2.828a.925.925,0,0,0-.851-.553h-1.857a.922.922,0,0,0,0,1.844h1.249l5.651,12.825a3.02,3.02,0,0,0-.707,1.93,3.046,3.046,0,0,1,0,4.3,3.1,3.1,0,1,0,6.192,0,3.03,3.03,0,0,0-.263-1.229h6.717a3.029,3.029,0,0,0-.263,1.229,3.1,3.1,0,1,0,6.193,0,3.053,3.053,0,0,0-3.057-3.074.1.1,0,0,0-.04.006v-.006H529.353c-.009-.006-.02-.006-.028-.012a.8.8,0,0,1-.123.012,1.229,1.229,0,0,1,0-2.459Zm16.1-10.452-3.715,8.607h-13l-3.715-8.607ZM530.441,2325.9a1.239,1.239,0,1,1-1.238-1.23A1.239,1.239,0,0,1,530.441,2325.9Zm12.385,0a1.239,1.239,0,1,1-1.238-1.23,1.238,1.238,0,0,1,1.238,1.23Z" transform="translate(-518.991 -2305)" fill="#c9c9c9" fill-rule="evenodd"/>
</svg>
