<svg xmlns="http://www.w3.org/2000/svg" width="20" height="20" viewBox="0 0 20 20">
  <path id="close" d="M881,1243a10,10,0,1,0,10,10,10,10,0,0,0-10-10Zm0,18.636a8.636,8.636,0,1,1,8.636-8.636A8.636,8.636,0,0,1,881,1261.636Zm3.654-12.309a.682.682,0,0,0-.964.018l-2.585,2.691-2.814-2.709a.682.682,0,1,0-.946.982l2.8,2.691-2.8,2.691a.682.682,0,0,0-.019.964.674.674,0,0,0,.491.209.682.682,0,0,0,.473-.191l2.814-2.709,2.586,2.691a.682.682,0,0,0,.983-.946l-2.6-2.709,2.6-2.709A.682.682,0,0,0,884.654,1249.327Z" transform="translate(-871 -1243)" fill="#202020" fill-rule="evenodd"/>
</svg>
