<?xml version="1.0" encoding="utf-8"?>
<!-- Generator: Adobe Illustrator 16.0.0, SVG Export Plug-In . SVG Version: 6.00 Build 0)  -->
<!DOCTYPE svg PUBLIC "-//W3C//DTD SVG 1.1//EN" "http://www.w3.org/Graphics/SVG/1.1/DTD/svg11.dtd">
<svg version="1.1" id="Layer_1" xmlns="http://www.w3.org/2000/svg" xmlns:xlink="http://www.w3.org/1999/xlink" x="0px" y="0px"
	 width="512px" height="512px" viewBox="0 0 512 512" enable-background="new 0 0 512 512" xml:space="preserve">
<g>
	<path fill-rule="evenodd" clip-rule="evenodd" fill="#1350FF" d="M258.331,64.812c1.661,0.356,3.338,0.653,4.981,1.081
		c5.871,1.527,10.735,4.829,15.246,8.742c21.259,18.443,42.517,36.888,63.783,55.323c24.257,21.026,48.522,42.043,72.784,63.063
		c11.451,9.921,22.946,19.794,34.336,29.785c5.908,5.184,8.962,11.943,9.98,19.653c0.762,5.775,0.112,11.391-2.096,16.814
		c-3.733,9.166-10.572,13.867-20.421,14.104c-2.823,0.067-5.655-0.256-8.484-0.401c-0.429-0.022-0.857-0.057-1.431-0.095
		c0,0.642,0,1.189,0,1.737c0,52.475,0,104.949,0.001,157.424c0,5.206-0.873,10.207-3.769,14.644
		c-4.691,7.187-11.648,10.434-19.968,10.712c-8.31,0.279-16.634,0.154-24.951,0.168c-22.836,0.039-45.672,0.065-68.509,0.077
		c-3.477,0.002-6.959,0.007-10.43-0.172c-5.736-0.296-8.434-3.033-8.859-8.773c-0.063-0.837-0.073-1.678-0.073-2.518
		c-0.003-45.595-0.003-91.19-0.003-136.785c0-0.551,0-1.101,0-1.737c-23.707,0-47.284,0-71.039,0c0,0.544,0,1.089,0,1.633
		c0,36.116,0.005,72.232-0.004,108.349c-0.003,9.678-0.023,19.355-0.102,29.032c-0.014,1.707-0.228,3.436-0.569,5.109
		c-0.586,2.87-2.428,4.672-5.306,5.174c-2.037,0.356-4.124,0.568-6.191,0.589c-6.999,0.07-13.998,0.034-20.998,0.025
		c-18.276-0.022-36.554-0.074-54.83-0.065c-6.436,0.003-12.872,0.146-19.308,0.235c-0.299,0.005-0.595,0.126-0.893,0.192
		c-1.681,0-3.36,0-5.04,0c-0.26-0.074-0.515-0.189-0.779-0.216c-3.142-0.312-6.137-1.169-8.87-2.726
		c-8.96-5.104-13.794-12.706-13.747-23.169c0.038-8.516,0.146-17.03,0.149-25.546c0.016-44.028,0.007-88.057,0.007-132.085
		c0-0.42,0-0.84,0-1.302c-2.541,0.198-4.888,0.424-7.239,0.557c-10.747,0.608-21.865-4.787-24.545-18.317
		c-0.331-1.672-0.599-3.357-0.896-5.036c0-2.24,0-4.48,0-6.721c0.067-0.18,0.177-0.354,0.197-0.539
		c0.791-7.256,3.74-13.57,8.813-18.735c3.521-3.584,7.42-6.803,11.227-10.099c29.437-25.486,58.899-50.941,88.337-76.426
		c24.692-21.376,49.362-42.78,74.04-64.174c3.821-3.313,8.057-5.906,12.948-7.287c1.978-0.558,4.023-0.875,6.037-1.3
		C254.011,64.812,256.171,64.812,258.331,64.812z M308.211,439.892c0.603,0,1.036,0,1.469-0.001
		c31.237-0.025,62.475-0.049,93.713-0.094c1.15-0.002,2.309-0.172,3.45-0.346c1-0.152,1.679-0.73,1.802-1.799
		c0.133-1.149,0.344-2.301,0.35-3.452c0.044-7.959,0.055-15.918,0.055-23.877c0.004-48.519-0.013-97.036,0.044-145.555
		c0.003-2.447,0.377-4.955,0.992-7.327c0.95-3.664,3.857-5.65,7.639-5.353c1.889,0.148,3.745,0.738,5.606,1.168
		c3.805,0.876,7.593,1.822,11.407,2.654c1.984,0.434,3.689-0.261,5.122-1.68c4.045-4.007,4.359-10.536,0.587-15.049
		c-1.352-1.616-2.907-3.086-4.505-4.467c-20.686-17.887-41.395-35.746-62.099-53.611c-35.93-31.003-71.857-62.007-107.793-93.002
		c-1.876-1.618-3.75-3.252-5.748-4.709c-3.551-2.59-7.258-2.65-10.94-0.226c-1.199,0.79-2.366,1.647-3.452,2.585
		c-21.838,18.876-43.672,37.757-65.487,56.66c-34.294,29.716-68.579,59.442-102.849,89.186c-2.712,2.354-5.487,4.691-7.856,7.37
		c-3.672,4.15-3.852,8.773-1.003,13.499c2.231,3.704,4.125,4.552,8.294,3.445c4.165-1.104,8.272-2.428,12.439-3.526
		c5.579-1.471,10.263,1.581,11.202,7.244c0.234,1.412,0.345,2.86,0.346,4.293c0.002,10.598-0.054,21.196-0.062,31.794
		c-0.021,30.839-0.031,61.677-0.042,92.515c-0.005,15.399-0.001,30.799,0.001,46.198c0,0.64,0.002,1.281,0.047,1.919
		c0.183,2.619,0.718,3.25,3.357,3.336c4.395,0.143,8.794,0.198,13.19,0.197c26.277-0.009,52.556-0.043,78.833-0.075
		c1.238-0.001,2.478-0.041,3.715-0.102c1.947-0.095,1.691,0.134,1.692-1.818c0.005-45.638,0.002-91.276,0.013-136.914
		c0-1.276,0.079-2.56,0.227-3.827c0.528-4.539,2.558-6.742,6.939-7.406c1.891-0.287,3.817-0.467,5.728-0.469
		c26.079-0.029,52.158-0.024,78.237-0.013c2.077,0.001,4.156,0.067,6.229,0.179c5.828,0.313,9.164,3.824,9.185,9.652
		c0.008,2.318-0.071,4.638-0.071,6.956c-0.004,44.078-0.004,88.157-0.003,132.235C308.211,438.758,308.211,439.234,308.211,439.892z
		"/>
</g>
</svg>
