<svg xmlns="http://www.w3.org/2000/svg" width="21.226" height="20" viewBox="0 0 21.226 20">
  <path id="home-inactive" d="M364.947,1163.151l-9.157-7.8a1.454,1.454,0,0,0-1.884,0l-9.157,7.8a1.467,1.467,0,0,0,.876,2.581v7.8a1.466,1.466,0,0,0,1.456,1.468h15.534a1.466,1.466,0,0,0,1.456-1.468v-7.8a1.467,1.467,0,0,0,.876-2.581Zm-10.582,10.385h-.971v-4.39h2.912v4.39Zm8.252-9.268v9.268h-4.854v-4.39a1.459,1.459,0,0,0-1.457-1.463h-2.912a1.459,1.459,0,0,0-1.457,1.463v4.39h-4.856v-9.268h-1.39l9.157-7.8,9.157,7.8h-1.39Z" transform="translate(-344.235 -1155)" fill="#fff" fill-rule="evenodd"/>
</svg>
