<svg xmlns="http://www.w3.org/2000/svg" width="25.6" height="22.5" viewBox="0 0 25.6 22.5">
  <path id="pending-transaction" d="M25.6,203.2l-4.9,2.45,4.9,2.45-12.8,6.4L0,208.1l4.9-2.45L0,203.2l4.8-2.4L0,198.4,12.8,192l12.8,6.4-4.8,2.4ZM3.575,198.4q2.325,1.162,4.619,2.3t4.606,2.313q2.313-1.175,4.606-2.312t4.619-2.3L12.8,193.788Zm15.337,8.137L12.8,209.6l-6.112-3.062L3.575,208.1l9.225,4.613,9.225-4.613ZM12.8,207.813q2.325-1.162,4.612-2.312t4.612-2.3l-3.013-1.513q-1.562.788-3.106,1.556T12.8,204.8q-1.562-.788-3.106-1.556t-3.106-1.556L3.575,203.2q2.325,1.15,4.612,2.3T12.8,207.813Z" transform="translate(0 -192)" fill="#c9c9c9"/>
</svg>
