<?xml version="1.0" encoding="utf-8"?>
<!-- Generator: Adobe Illustrator 16.0.0, SVG Export Plug-In . SVG Version: 6.00 Build 0)  -->
<!DOCTYPE svg PUBLIC "-//W3C//DTD SVG 1.1//EN" "http://www.w3.org/Graphics/SVG/1.1/DTD/svg11.dtd">
<svg version="1.1" id="Layer_1" xmlns="http://www.w3.org/2000/svg" xmlns:xlink="http://www.w3.org/1999/xlink" x="0px" y="0px"
	 width="1024px" height="1024px" viewBox="0 0 1024 1024" enable-background="new 0 0 1024 1024" xml:space="preserve">
<g>
	<g>
		<path fill-rule="evenodd" clip-rule="evenodd" fill="#0D3429" d="M350.653,55.773c-0.116,54.675-0.266,109.353-0.338,164.028
			c-0.051,38.426,0.004,76.854,0.01,115.28c0.001,3.463,0,6.927,0,11.321c-6.477,0-12.019,0-17.56,0
			c-88.381-0.01-176.763-0.024-265.145-0.014c-2.65,0-5.301,0.239-7.951,0.367c0-96.846,0-193.693,0-290.982
			C156.665,55.773,253.659,55.773,350.653,55.773z M304.495,300.676c0-66.848,0-132.642,0-198.55c-66.612,0-132.613,0-198.561,0
			c0,66.553,0,132.349,0,198.55C172.322,300.676,238.118,300.676,304.495,300.676z"/>
		<path fill-rule="evenodd" clip-rule="evenodd" fill="#0D3429" d="M966.33,346.755c-54.674-0.125-109.348-0.282-164.023-0.362
			c-38.721-0.057-77.443-0.007-116.166-0.004c-3.17,0-6.341,0-10.444,0c0-4.083,0-7.251,0-10.42
			c-0.002-87.495,0.002-174.989-0.021-262.485c-0.001-5.903-0.213-11.808-0.327-17.711c96.994,0,193.988,0,290.982,0
			C966.33,152.768,966.33,249.761,966.33,346.755z M721.472,101.826c0,66.853,0,132.629,0,198.531c66.582,0,132.569,0,198.598,0
			c0-66.542,0-132.325,0-198.531C853.72,101.826,787.942,101.826,721.472,101.826z"/>
		<path fill-rule="evenodd" clip-rule="evenodd" fill="#0D3429" d="M59.671,671.449c77.468,0.07,154.936,0.148,232.404,0.213
			c18.914,0.018,37.827,0.002,57.497,0.002c0,96.612,0,192.764,0,290.041c-3.63,0-7.099,0-10.567,0
			c-89.3,0.002-178.601-0.006-267.901,0.037c-3.811,0-7.621,0.449-11.432,0.69C59.671,865.438,59.671,768.444,59.671,671.449z
			 M106.107,717.001c0,67.126,0,133.087,0,199.021c66.502,0,132.239,0,198.397,0c0-66.57,0-132.54,0-199.021
			C238.141,717.001,172.374,717.001,106.107,717.001z"/>
		<path fill-rule="evenodd" clip-rule="evenodd" fill="#0D3429" d="M966.33,962.433c-3.811-0.243-7.622-0.693-11.432-0.695
			c-89.304-0.041-178.608-0.03-267.912-0.03c-3.467,0-6.935,0-10.857,0c0-97.056,0-193,0-290.054c4.752,0,9.092,0,13.432,0
			c90.191,0.011,180.381,0.026,270.57,0.028c2.066,0,4.133-0.153,6.199-0.232C966.33,768.444,966.33,865.438,966.33,962.433z
			 M920.232,916.129c0-66.712,0-132.512,0-198.977c-66.407,0-132.407,0-198.735,0c0,66.495,0,132.49,0,198.977
			C787.857,916.129,853.6,916.129,920.232,916.129z"/>
		<path fill-rule="evenodd" clip-rule="evenodd" fill="#0D3429" d="M966.33,453.213c-76.288,0.088-152.578,0.179-228.866,0.265
			c-5.23,0.007-10.459,0.002-16.601,0.002c0,53.094,0,104.726,0,157.561c-4.648,0-8.389,0.005-12.13,0
			c-28.092-0.015-56.193,0.386-84.27-0.284c-9.39-0.224-11.438,2.968-11.172,11.609c0.586,18.908,0.211,37.845,0.175,56.77
			c-0.007,3.189-0.293,6.379-0.504,10.648c-13.584,0-26.514,0.174-39.423-0.229c-1.563-0.049-4.337-3.23-4.341-4.967
			c-0.1-38.724,0.109-77.447,0.286-116.171c0.001-0.222,0.366-0.443,1.536-1.782c33.737,0,68.473,0,104.367,0
			c0-52.908,0-104.721,0-157.779c97.762,0,194.352,0,290.941,0C966.33,423.641,966.33,438.428,966.33,453.213z"/>
		<path fill-rule="evenodd" clip-rule="evenodd" fill="#0D3429" d="M613.247,55.773c-0.152,44.016-0.37,88.032-0.441,132.047
			c-0.076,47.575-0.017,95.149-0.017,142.724c0,3.19,0,6.38,0,10.722c-20.223,0-39.624,0.003-59.024-0.002
			c-18.527-0.005-18.516-0.009-18.518,18.711c-0.005,25.708-0.014,51.416-0.061,77.125c-0.005,3.17-0.259,6.341-0.42,10.002
			c-14.678,0-28.7,0-43.457,0c-0.205-3.146-0.55-5.997-0.55-8.849c-0.021-44.028,0.217-88.06-0.177-132.084
			c-0.073-8.1,2.581-9.947,10.12-9.794c21.809,0.436,43.632,0.154,65.938,0.154c0.372-3.171,0.863-5.41,0.864-7.648
			c0.044-76.239,0.041-152.476,0.024-228.714c0-1.464-0.27-2.93-0.413-4.394C582.493,55.773,597.87,55.773,613.247,55.773z"/>
		<path fill-rule="evenodd" clip-rule="evenodd" fill="#0D3429" d="M412.753,964.206c-0.104-66.81-0.216-133.618-0.309-200.428
			c-0.027-20.695-0.018-41.388,0.021-62.085c0.006-3.166,0.263-6.336,0.427-10.031c14.741,0,28.772,0,44.011,0
			c0,75.42,0,150.597,0,226.333c11.659,0,22.12,0,33.545,0c0-36.371,0-72.316,0-109.069c14.953,0,28.976,0,44.73,0
			c0,51.572,0,103.427,0,155.28C494.37,964.206,453.562,964.206,412.753,964.206z"/>
		<path fill-rule="evenodd" clip-rule="evenodd" fill="#0D3429" d="M59.671,486.924c14.745,0,29.49,0,45.315,0
			c0,26.354,0,52.179,0,79.244c81.83,0,162.587,0,244.09,0c0,15.527,0,29.801,0,44.956c-96.887,0-193.146,0-289.405,0
			C59.671,569.726,59.671,528.324,59.671,486.924z"/>
		<path fill-rule="evenodd" clip-rule="evenodd" fill="#0D3429" d="M59.671,408.856c56.974,0,113.948,0,171.451,0
			c0,37.435,0,73.696,0,110.74c-14.196,0-28.447,0-44.105,0c0-13.914,0.001-27.695,0-41.477c0-24.809,0-24.658-24.461-24.63
			c-34.295,0.04-68.59-0.171-102.884-0.275C59.671,438.428,59.671,423.641,59.671,408.856z"/>
		<path fill-rule="evenodd" clip-rule="evenodd" fill="#0D3429" d="M966.33,611.124c-71.666,0-143.332,0-215.575,0
			c0-14.975,0-28.991,0-43.555c1.553-0.357,3.189-1.063,4.825-1.063c70.25,0.047,140.501,0.159,210.75,0.261
			C966.33,581.552,966.33,596.339,966.33,611.124z"/>
		<path fill-rule="evenodd" clip-rule="evenodd" fill="#0D3429" d="M568.892,964.206c0-64.343,0-128.688,0-193.726
			c14.88,0,28.905,0,44.355,0c0,64.732,0,129.228,0,193.726C598.462,964.206,583.677,964.206,568.892,964.206z"/>
		<path fill-rule="evenodd" clip-rule="evenodd" fill="#0D3429" d="M966.33,533.055c-46.024-0.144-92.05-0.295-138.074-0.435
			c-6.134-0.02-12.266-0.002-18.945-0.002c0-15.153,0-29.492,0-45.252c3.005,0,6.105,0,9.204,0c45.744,0,91.487,0.01,137.23-0.019
			c3.529-0.002,7.057-0.276,10.585-0.423C966.33,502.302,966.33,517.678,966.33,533.055z"/>
		<path fill-rule="evenodd" clip-rule="evenodd" fill="#0D3429" d="M533.404,55.773c0,14.735,0,29.472,0,44.918
			c-43.35,0-85.706,0-129.522,0c0-15.008,0-29.964,0-44.918C447.057,55.773,490.23,55.773,533.404,55.773z"/>
		<path fill-rule="evenodd" clip-rule="evenodd" fill="#0D3429" d="M301.512,519.676c0-14.718,0-29.018,0-44.465
			c4.068,0,7.537,0,11.004,0c26.89,0.012,53.779-0.002,80.668,0.045c19.438,0.032,19.319,0.069,19.309-19.8
			c-0.044-88.054-0.024-176.106,0-264.159c0.004-11.673,0.074-11.745,11.464-11.756c33.093-0.035,66.187-0.02,99.283,0.017
			c2.884,0.003,5.768,0.315,9.176,0.515c0,14.653,0,28.689,0,44.071c-8.496,0-16.933,0-25.37,0
			c-13.296,0.002-26.618,0.489-39.881-0.173c-8.365-0.416-10.364,2.618-10.337,10.563c0.265,78.302,0.172,156.605,0.181,234.907
			c0.002,16.515,0,33.027,0,50.235C405.096,519.676,353.846,519.676,301.512,519.676z"/>
		<path fill-rule="evenodd" clip-rule="evenodd" fill="#0D3429" d="M569.52,532.607c0-41.322,0-81.697,0-122.88
			c14.272,0,28.503,0,43.459,0c0.187,3.45,0.508,6.615,0.51,9.78c0.028,34.876-0.132,69.753,0.12,104.629
			c0.047,6.365-1.364,8.989-8.331,8.632C593.789,532.175,582.25,532.607,569.52,532.607z"/>
		<path fill-rule="evenodd" clip-rule="evenodd" fill="#0D3429" d="M535.188,610.58c-41.262,0-81.254,0-122.548,0
			c0-13.578-0.267-26.743,0.358-39.864c0.073-1.533,5.063-4.021,7.794-4.051c30.092-0.313,60.189-0.345,90.283-0.166
			c7.803,0.043,18.188-1.681,22.627,2.481c3.932,3.689,1.321,14.429,1.464,22.056C535.279,597.197,535.188,603.365,535.188,610.58z"
			/>
		<path fill-rule="evenodd" clip-rule="evenodd" fill="#0D3429" d="M491.214,756.784c0-37.658,0-73.9,0-110.939
			c14.345,0,28.574,0,43.469,0c0.175,2.973,0.48,5.832,0.484,8.694c0.052,31.015-0.174,62.029,0.234,93.038
			c0.1,7.496-2.263,9.713-9.547,9.351C514.697,756.377,503.492,756.784,491.214,756.784z"/>
		<path fill-rule="evenodd" clip-rule="evenodd" fill="#0D3429" d="M257.724,201.666c0,14.461-0.25,28.928,0.116,43.378
			c0.158,6.232-1.215,8.974-8.233,8.887c-29.506-0.362-59.022-0.357-88.529-0.053c-6.74,0.071-8.547-2.23-8.481-8.695
			c0.299-29.211,0.367-58.432,0.024-87.644c-0.084-7.173,2.38-8.965,9.199-8.891c28.917,0.311,57.844,0.366,86.757-0.074
			c7.692-0.118,9.467,2.651,9.245,9.715c-0.455,14.446-0.136,28.917-0.136,43.376C257.698,201.666,257.711,201.666,257.724,201.666z
			"/>
		<path fill-rule="evenodd" clip-rule="evenodd" fill="#0D3429" d="M820.672,148.788c15.075,0.002,30.153,0.167,45.225-0.086
			c5.3-0.09,7.391,1.651,7.363,7.085c-0.155,30.445-0.132,60.893-0.026,91.339c0.018,4.938-1.868,6.712-6.831,6.686
			c-30.446-0.15-60.893-0.137-91.339-0.008c-4.836,0.021-6.877-1.511-6.851-6.618c0.15-30.447,0.17-60.894-0.021-91.339
			c-0.034-5.467,1.947-7.228,7.255-7.146C790.518,148.937,805.596,148.784,820.672,148.788z"/>
		<path fill-rule="evenodd" clip-rule="evenodd" fill="#0D3429" d="M153.355,867.801c0-34.441,0-68.565,0-103.218
			c34.625,0,68.772,0,103.649,0c0,34.104,0,68.213,0,103.218C222.602,867.801,188.301,867.801,153.355,867.801z"/>
		<path fill-rule="evenodd" clip-rule="evenodd" fill="#0D3429" d="M768.931,764.527c34.568,0,68.751,0,103.626,0
			c0,34.219,0,68.356,0,103.125c-2.455,0.342-4.678,0.912-6.903,0.919c-29.854,0.077-59.709-0.016-89.563,0.176
			c-5.438,0.035-7.97-1.218-7.92-7.355c0.246-30.739,0.095-61.483,0.121-92.225C768.292,767.753,768.671,766.34,768.931,764.527z"/>
	</g>
</g>
</svg>
