<svg xmlns="http://www.w3.org/2000/svg" width="19.939" height="23.68" viewBox="0 0 19.939 23.68">
  <path id="sell-trade" d="M365.365,2305.661h-3.148c-.4-2.445-2.775-4.791-5.247-4.791s-4.851,2.345-5.247,4.791h-3.148a1.469,1.469,0,0,0-1.574,1.453v15.846a1.583,1.583,0,0,0,1.574,1.59h16.791a1.583,1.583,0,0,0,1.574-1.59v-15.846a1.469,1.469,0,0,0-1.574-1.453Zm-8.4-3.2a4.4,4.4,0,0,1,3.673,3.2H353.3A4.4,4.4,0,0,1,356.969,2302.46Zm8.4,20.5H348.574v-15.725h3.148v1.322a.787.787,0,1,0,1.574,0v-1.322h7.346v1.322a.787.787,0,1,0,1.574,0v-1.322h3.148Z" transform="translate(-347 -2300.87)" fill="#c9c9c9" fill-rule="evenodd"/>
</svg>
