<?xml version="1.0" encoding="utf-8"?>
<!-- Generator: Adobe Illustrator 16.0.0, SVG Export Plug-In . SVG Version: 6.00 Build 0)  -->
<!DOCTYPE svg PUBLIC "-//W3C//DTD SVG 1.1//EN" "http://www.w3.org/Graphics/SVG/1.1/DTD/svg11.dtd">
<svg version="1.1" id="Layer_1" xmlns="http://www.w3.org/2000/svg" xmlns:xlink="http://www.w3.org/1999/xlink" x="0px" y="0px"
	 width="512px" height="512px" viewBox="0 0 512 512" enable-background="new 0 0 512 512" xml:space="preserve">
<g>
	<path fill-rule="evenodd" clip-rule="evenodd" fill="#1350FF" d="M474.391,197.873c18.252,3.154,27.201,10.935,30.213,26.023
		c0.484,2.423,0.514,4.965,0.517,7.453c0.038,27.826,0.028,55.652,0.036,83.477c0.006,19.42-8.996,30.34-28.068,34.057
		c-0.793,0.154-1.557,0.459-2.697,0.805c0,7.369,0,14.678,0,21.986c0,14.828,0.065,29.658-0.018,44.487
		c-0.116,21.124-13.359,34.321-34.363,34.323c-131.63,0.006-263.261-0.189-394.891,0.2c-21.113,0.063-36.358-14.746-36.275-36.558
		c0.404-105.804,0.185-211.61,0.195-317.415c0.002-20.144,13.289-33.361,33.616-33.364c109.637-0.015,219.274-0.004,328.911-0.006
		c22.827,0,45.654-0.053,68.481-0.008c21.973,0.043,34.322,12.439,34.338,34.408c0.021,31.299,0.006,62.597,0.006,93.896
		C474.391,193.616,474.391,195.595,474.391,197.873z M27.659,126.178c0,0.575,0,2.187,0,3.798
		c0.004,95.142,0.004,190.284,0.018,285.427c0.001,11.712,4.697,16.459,16.314,16.46c131.966,0.012,263.933,0.012,395.899,0.002
		c11.317-0.002,16.002-4.717,16.021-16.137c0.033-20.494,0.015-40.989-0.002-61.484c-0.001-1.455-0.16-2.91-0.277-4.871
		c-2.056,0-3.843,0-5.629-0.001c-36.658-0.005-73.314,0.03-109.972-0.034c-19.035-0.033-32.952-13.662-33.047-32.609
		c-0.146-29.325-0.097-58.652,0.019-87.977c0.053-13.316,7.289-23.997,19.898-28.175c5.532-1.833,11.722-2.288,17.619-2.321
		c35.156-0.196,70.314-0.086,105.471-0.079c1.781,0,3.563,0,5.93,0c0-2.415,0-4.195,0-5.975
		c-0.004-16.162-0.028-32.325-0.003-48.487c0.019-12.262-3.856-16.243-16.021-16.243c-128.633,0-257.265,0.033-385.898-0.041
		C45.428,127.426,36.856,126.635,27.659,126.178z M406.07,217.076c0,0.046,0,0.092,0,0.138c-21.82,0-43.641-0.007-65.459,0.003
		c-10.174,0.004-14.223,4.015-14.228,14.166c-0.013,27.983-0.006,55.965,0.015,83.948c0.009,10.873,4.242,15.1,15.117,15.102
		c43.473,0.004,86.945,0,130.418-0.018c10.402-0.004,14.529-4.074,14.555-14.473c0.046-19.821,0.021-39.643,0.016-59.463
		c-0.004-9.327,0.146-18.659-0.109-27.979c-0.19-6.982-5.157-11.442-11.873-11.434C451.705,217.093,428.887,217.076,406.07,217.076z
		 M455.922,110.702c0-3.91,0.004-8.061,0-12.211c-0.012-12.914-3.689-16.611-16.686-16.612
		C307.805,81.862,176.372,81.857,44.94,81.87c-2.325,0-4.68,0.068-6.968,0.434c-6.376,1.019-10.46,6.318-10.216,12.698
		c0.298,7.825,5.501,13.993,16.381,13.973c115.605-0.215,231.21-0.259,346.816-0.042
		C412.508,108.974,434.169,107.057,455.922,110.702z"/>
	<path fill-rule="evenodd" clip-rule="evenodd" fill="#1350FF" d="M371.86,272.711c-0.118-19.042,15.669-35.172,34.63-35.382
		c19.703-0.218,35.773,15.415,36.013,35.032c0.235,19.307-16.14,35.834-35.41,35.738C387.8,308.004,371.98,292.114,371.86,272.711z
		 M423.992,272.591c-0.027-9.354-7.532-16.77-16.89-16.692c-9.422,0.079-16.75,7.438-16.757,16.828
		c-0.007,9.268,7.54,16.735,16.88,16.702C416.542,289.396,424.02,281.887,423.992,272.591z"/>
</g>
</svg>
