<svg xmlns="http://www.w3.org/2000/svg" width="22" height="22" viewBox="0 0 22 22">
  <path id="merchant-tools-active" d="M11,15.615A4.615,4.615,0,1,1,15.615,11,4.618,4.618,0,0,1,11,15.615Zm0-7.533A2.917,2.917,0,1,0,13.917,11,2.929,2.929,0,0,0,11,8.083ZM11,22h-.12a15.8,15.8,0,0,1-1.6-.1.862.862,0,0,1-.741-.717L8.3,19.465a8.408,8.408,0,0,1-1.507-.646L5.452,19.848a.861.861,0,0,1-1.028,0c-.024-.024-.6-.478-1.2-1.052l-.1-.1A13.988,13.988,0,0,1,2.08,17.5a.827.827,0,0,1,0-1.028l1.052-1.387a8.551,8.551,0,0,1-.622-1.53L.837,13.32a.838.838,0,0,1-.717-.741A8.377,8.377,0,0,1,0,11v-.12a15.8,15.8,0,0,1,.1-1.6.862.862,0,0,1,.717-.741L2.535,8.3A8.408,8.408,0,0,1,3.18,6.791L2.152,5.452a.861.861,0,0,1,0-1.028c.024-.024.478-.6,1.052-1.2l.1-.1A13.988,13.988,0,0,1,4.5,2.08a.827.827,0,0,1,1.028,0L6.911,3.133a8.551,8.551,0,0,1,1.53-.622L8.68.837A.838.838,0,0,1,9.422.12,8.377,8.377,0,0,1,11,0h.12a15.8,15.8,0,0,1,1.6.1.862.862,0,0,1,.741.717L13.7,2.535a8.408,8.408,0,0,1,1.507.646l1.339-1.028a.861.861,0,0,1,1.028,0c.024.024.6.478,1.2,1.052l.1.1A13.989,13.989,0,0,1,19.92,4.5a.827.827,0,0,1,0,1.028L18.891,6.911a8.551,8.551,0,0,1,.622,1.53l1.674.239a.838.838,0,0,1,.717.741,15.185,15.185,0,0,1,.1,1.6v.12a15.8,15.8,0,0,1-.1,1.6.862.862,0,0,1-.717.741l-1.722.239a8.408,8.408,0,0,1-.646,1.507L19.848,16.6a.861.861,0,0,1,0,1.028c-.024.024-.478.6-1.052,1.2l-.1.1a13.988,13.988,0,0,1-1.2,1.052.827.827,0,0,1-1.028,0l-1.387-1.076a8.551,8.551,0,0,1-1.53.622l-.239,1.674a.838.838,0,0,1-.741.717A14.445,14.445,0,0,1,11,22Zm-.861-1.722a7.2,7.2,0,0,0,.741.024H11a7.2,7.2,0,0,0,.741-.024l.215-1.578a.871.871,0,0,1,.646-.717,6.739,6.739,0,0,0,2.1-.861.872.872,0,0,1,.646-.1.883.883,0,0,1,.335.167l1.267.957c.167-.143.359-.311.55-.5l.1-.1c.191-.191.359-.383.5-.55l-.957-1.267a.872.872,0,0,1-.048-.957,6.356,6.356,0,0,0,.861-2.033.864.864,0,0,1,.717-.693l1.6-.215A7.2,7.2,0,0,0,20.3,11.1V11a7.2,7.2,0,0,0-.024-.741L18.7,10.043a.9.9,0,0,1-.717-.646,7.166,7.166,0,0,0-.837-2.08.481.481,0,0,1-.1-.191.845.845,0,0,1,.12-.789l.98-1.291c-.143-.167-.311-.359-.5-.55l-.1-.1c-.191-.191-.383-.359-.55-.5l-1.267.957a.862.862,0,0,1-1,0A7.649,7.649,0,0,0,12.7,3.993a.842.842,0,0,1-.646-.717l-.215-1.6A7.2,7.2,0,0,0,11.1,1.65H11a7.2,7.2,0,0,0-.741.024L10.043,3.3a.813.813,0,0,1-.717.717,6.886,6.886,0,0,0-2.033.837.872.872,0,0,1-.646.1.883.883,0,0,1-.335-.167L5.07,3.826c-.167.143-.359.311-.55.5l-.1.1c-.191.191-.359.383-.5.55l.957,1.267a.869.869,0,0,1,.048.957c-.024.024-.024.048-.048.072A6.886,6.886,0,0,0,4.041,9.3a.842.842,0,0,1-.717.646l-1.6.215A7.2,7.2,0,0,0,1.7,10.9V11a7.2,7.2,0,0,0,.024.741l1.578.215a.813.813,0,0,1,.717.717V12.7a6.748,6.748,0,0,0,.837,2.009.841.841,0,0,1,.072.717.9.9,0,0,1-.167.287l-.933,1.243c.143.167.311.359.5.55l.1.1c.191.191.383.359.55.5l1.267-.957a.861.861,0,0,1,1.052.024,7.614,7.614,0,0,0,1.985.837.842.842,0,0,1,.646.717Z" fill="#fff"/>
</svg>
