<?xml version="1.0" encoding="utf-8"?>
<!-- Generator: Adobe Illustrator 16.0.0, SVG Export Plug-In . SVG Version: 6.00 Build 0)  -->
<!DOCTYPE svg PUBLIC "-//W3C//DTD SVG 1.1//EN" "http://www.w3.org/Graphics/SVG/1.1/DTD/svg11.dtd">
<svg version="1.1" id="Isolation_Mode" xmlns="http://www.w3.org/2000/svg" xmlns:xlink="http://www.w3.org/1999/xlink" x="0px"
	 y="0px" width="500px" height="500px" viewBox="0 0 500 500" enable-background="new 0 0 500 500" xml:space="preserve">
<g>
	<path fill-rule="evenodd" clip-rule="evenodd" fill="#FFFFFF" d="M261.808,333.635c5.896,5.268,10.769,8.982,14.781,13.467
		c2.097,2.345,3.572,5.987,3.774,9.142c0.521,8.128,0.506,16.332,0.008,24.463c-0.195,3.179-1.636,6.726-3.602,9.258
		c-4.014,5.171-8.768,9.765-13.627,15.04c4.362,4.683,8.37,9.193,12.614,13.469c3.373,3.396,5.144,7.145,4.858,12.061
		c-0.312,5.366-0.158,10.764-0.067,16.145c0.074,4.438-1.705,7.763-5.623,9.779c-10.328,5.317-20.648,10.653-31.08,15.761
		c-4.215,2.063-8.43,1.552-12.104-1.649c-10.081-8.782-20.121-17.612-30.266-26.318c-3.383-2.903-4.109-6.533-4.101-10.712
		c0.063-27.437,0.032-54.872,0.027-82.309c-0.001-7.73-0.009-7.712-7.507-7.876c-1.73-0.039-3.488-0.095-5.178-0.425
		c-4.872-0.951-8.09-5.154-7.903-10.11c0.186-4.926,3.778-8.802,8.72-9.379c0.86-0.101,1.732-0.139,2.599-0.142
		c9.783-0.045,9.287,0.934,9.284-9.329c-0.006-19.45-0.105-38.899,0.087-58.346c0.04-4.058-1.294-6.04-5.022-7.816
		c-40.577-19.327-63.973-51.227-67.929-96.171c-5.252-59.665,36.354-112.545,95.715-122.747
		c62.21-10.692,122.569,32.77,132.189,95.184c8.125,52.716-18.526,101.819-67.398,123.871c-3.367,1.52-4.618,3.359-4.585,7.027
		c0.166,18.058-0.047,36.119,0.164,54.176c0.06,5.092-1.354,9.093-5.223,12.383C271.32,325.01,267.374,328.668,261.808,333.635z
		 M217.785,336.312c0,26.907,0.474,53.828-0.242,80.719c-0.273,10.257,1.755,18.019,10.736,23.663
		c4.356,2.738,7.788,8.768,12.099,9.257c4.534,0.515,9.672-3.696,14.447-6.042c6.748-3.32,7.823-9.771,2.651-15.396
		c-4.817-5.239-9.74-10.382-14.537-15.64c-5.128-5.617-5.12-10.341-0.013-16.084c2.422-2.724,4.699-5.678,7.522-7.922
		c8.357-6.647,11.702-15.1,9.752-25.51c-0.472-2.516-1.456-5.294-3.101-7.163c-4.465-5.074-9.484-9.654-14.146-14.563
		c-5.178-5.451-5.179-10.616-0.029-16.027c4.188-4.4,8.369-8.833,12.864-12.906c3.338-3.025,4.67-6.293,4.602-10.871
		c-0.265-17.53-0.106-35.067-0.113-52.6c-0.005-12.419,0.892-13.713,12.656-18.16c41.339-15.631,66.969-59.229,59.909-102.675
		c-8.634-53.13-57.395-86.918-107.862-79.609c-46.454,6.728-82.883,49.824-80.835,96.808c1.715,39.351,26.147,72.758,63.063,86.228
		c8.722,3.183,10.574,5.765,10.577,14.913C217.793,276.592,217.788,306.45,217.785,336.312z"/>
	<path fill-rule="evenodd" clip-rule="evenodd" fill="#FFFFFF" d="M341.381,321.566c-9.716-0.007-19.437,0.163-29.148-0.057
		c-8.837-0.2-13.915-6.786-11.033-13.944c1.852-4.601,5.479-6.333,10.313-6.313c14.923,0.069,29.848-0.17,44.765,0.113
		c4.996,0.095,7.127-1.415,6.355-6.452c-0.13-0.848-0.109-1.745-0.004-2.599c1.061-8.559-0.594-14.402-9.633-19.245
		c-13.658-7.319-18.324-25.417-12.927-40.182c5.163-14.123,20.435-24.192,34.499-22.749c17.431,1.79,29.979,13.136,32.416,29.313
		c2.371,15.74-5.254,30.417-19.753,37.042c-3.45,1.575-4.524,3.405-4.428,6.995c0.228,8.496,0.099,17.002,0.065,25.504
		c-0.034,8.472-3.821,12.424-12.339,12.544C360.815,321.677,351.098,321.571,341.381,321.566z M372.814,230.333
		c-7.701-0.084-14.743,6.945-14.668,14.644c0.073,7.581,6.622,14.26,14.26,14.546c7.618,0.285,14.784-6.619,14.937-14.39
		C387.493,237.433,380.609,230.42,372.814,230.333z"/>
	<path fill-rule="evenodd" clip-rule="evenodd" fill="#FFFFFF" d="M148.511,379.275c-7.64,0.004-15.281,0.105-22.918-0.045
		c-3.165-0.062-4.585,0.67-4.737,4.275c-0.215,5.129,0.743,8.207,6.126,10.788c14.452,6.93,21.526,23.866,17.457,39.104
		c-4.408,16.505-18.658,26.789-36.142,26.083c-15.252-0.617-28.695-12.63-31.676-28.307c-2.969-15.611,4.756-31.136,19.299-37.72
		c3.86-1.748,5.071-3.887,4.837-7.873c-0.305-5.19-0.121-10.414-0.041-15.621c0.104-6.758,3.922-10.87,10.528-10.904
		c20.314-0.103,40.63-0.095,60.944-0.013c6.556,0.026,10.703,4.191,10.634,10.225c-0.07,6.034-4.19,9.906-10.873,9.982
		C164.138,379.338,156.325,379.271,148.511,379.275z M125.201,424.82c0.064-8.079-6.342-14.445-14.513-14.423
		c-8.043,0.021-14.68,6.617-14.565,14.473c0.11,7.579,6.722,14.173,14.365,14.323C118.429,439.349,125.138,432.795,125.201,424.82z"
		/>
	<path fill-rule="evenodd" clip-rule="evenodd" fill="#FFFFFF" d="M349.574,349.691c13.094-3.379,20.547,3.394,26.32,14.066
		c3.122,5.771,7.062,11.147,11.094,16.343c1.137,1.466,4.079,2.622,5.901,2.295c18.371-3.294,36.582,8.176,40.578,25.875
		c4.395,19.465-7.005,37.777-26.382,42.378c-17.81,4.229-36.275-6.889-41.006-24.949c-2.422-9.244-1.634-18.378,3.591-26.536
		c2.188-3.417,1.866-5.735-0.34-8.757c-3.887-5.317-7.638-10.76-11.061-16.382c-1.985-3.26-4.405-4.424-8.099-4.156
		c-3.797,0.275-7.635,0.151-11.449,0.017c-6.064-0.215-9.869-3.999-9.969-9.709c-0.1-5.678,3.583-9.971,9.372-10.427
		C341.919,349.449,345.757,349.691,349.574,349.691z M399.58,430.944c8.089,0.008,14.742-6.535,14.634-14.391
		c-0.105-7.658-6.646-14.232-14.289-14.369c-8.001-0.142-14.684,6.288-14.838,14.275
		C384.932,424.394,391.479,430.937,399.58,430.944z"/>
	<path fill-rule="evenodd" clip-rule="evenodd" fill="#FFFFFF" d="M164.981,306.473c-0.347,0.008-0.697,0.037-1.041,0.004
		c-8.252-0.774-14.199,0.334-18.913,9.44c-7.083,13.683-24.756,18.542-39.487,13.502c-15.221-5.209-24.565-19.485-23.51-35.92
		c0.945-14.738,12.963-28.225,27.792-31.187c15.382-3.073,31.492,4.668,38.03,18.991c1.907,4.175,4.23,5.095,8.284,4.941
		c6.583-0.248,13.201-0.319,19.772,0.067c6.546,0.386,10.248,4.814,9.916,10.957c-0.313,5.771-4.217,9.073-10.953,9.187
		C171.575,306.512,168.278,306.465,164.981,306.473z M116.81,282.209c-8.181-0.026-14.613,6.334-14.542,14.38
		c0.07,7.951,6.75,14.53,14.666,14.441c7.8-0.086,14.07-6.437,14.122-14.3C131.111,288.354,125.109,282.235,116.81,282.209z"/>
	<path fill-rule="evenodd" clip-rule="evenodd" fill="#FFFFFF" d="M302.828,369.915c-8.608-0.034-13.234-4.271-12.467-11.417
		c0.036-0.344,0.036-0.694,0.108-1.03c1.325-6.154,8.199-9.269,17.077-7.742c5.752,0.988,9.19,5.722,8.47,11.659
		C315.307,367.233,311.111,369.947,302.828,369.915z"/>
	<path fill-rule="evenodd" clip-rule="evenodd" fill="#FFFFFF" d="M203.604,109.535c-0.047-19.861,15.738-35.899,35.378-35.948
		c19.58-0.049,35.563,16.104,35.481,35.859c-0.084,20.026-15.61,35.46-35.652,35.437
		C219.175,144.861,203.651,129.275,203.604,109.535z M254.131,109.276c-0.049-8.411-6.955-15.378-15.181-15.316
		c-8.255,0.062-15.053,7.063-15.023,15.471c0.032,8.545,6.675,15.173,15.187,15.152
		C247.561,124.563,254.181,117.816,254.131,109.276z"/>
</g>
</svg>
