<?xml version="1.0" encoding="utf-8"?>
<!-- Generator: Adobe Illustrator 16.0.0, SVG Export Plug-In . SVG Version: 6.00 Build 0)  -->
<!DOCTYPE svg PUBLIC "-//W3C//DTD SVG 1.1//EN" "http://www.w3.org/Graphics/SVG/1.1/DTD/svg11.dtd">
<svg version="1.1" id="Isolation_Mode" xmlns="http://www.w3.org/2000/svg" xmlns:xlink="http://www.w3.org/1999/xlink" x="0px"
	 y="0px" width="500px" height="500px" viewBox="0 0 500 500" enable-background="new 0 0 500 500" xml:space="preserve">
<g>
	<path fill-rule="evenodd" clip-rule="evenodd" fill="#FFFFFF" d="M196.15,448.267c-1.831-0.318-3.689-0.526-5.489-0.974
		c-14.047-3.487-23.899-11.697-28.193-25.766c-2.326-7.62-1.411-15.271,0.954-22.772c0.609-1.937,1.352-3.831,2.092-5.91
		c-1.626,0-3.196,0.047-4.764-0.009c-5.747-0.2-11.515-0.193-17.234-0.712c-9.037-0.818-16.822-4.776-23.791-10.438
		c-10.088-8.194-15.76-18.812-17.19-31.692c-0.299-2.694-0.442-5.421-0.444-8.132c-0.026-46.196-0.015-92.393-0.021-138.589
		c-0.003-22.277-0.033-44.556-0.036-66.833c-0.001-15.038,0.031-30.076,0.028-45.114c0-1.837-0.03-3.683-0.21-5.508
		c-0.605-6.16-3.916-9.346-10.078-9.778c-1.234-0.086-2.476-0.128-3.713-0.128c-20.679-0.008-41.356,0.002-62.035-0.021
		c-1.673-0.001-3.374-0.05-5.013-0.347c-4.392-0.795-7.716-2.975-9.012-7.529c-0.017-0.061-0.111-0.1-0.17-0.148
		c0-1.04,0-2.08,0-3.12c0.901-3.244,2.735-5.875,5.56-7.656c1.615-1.018,3.485-1.629,5.24-2.424c1.92,0,3.84,0,5.76,0
		c0.774,0.08,1.549,0.229,2.323,0.229c11.879,0.001,23.759-0.024,35.638-0.027c8.079-0.001,16.16-0.096,24.236,0.069
		c8.926,0.183,17.016,2.748,23.455,9.28c4.834,4.903,7.517,10.94,8.357,17.674c0.617,4.934,0.625,9.944,0.914,15.107
		c0.336,0.023,0.915,0.101,1.494,0.102c13.52,0.007,27.039,0.006,40.559,0.005c2.461-0.001,4.868,0.301,7.123,1.354
		c3.812,1.781,5.964,5.316,5.766,9.418c-0.223,4.593-2.396,7.796-6.612,9.144c-1.983,0.634-4.142,0.983-6.225,1.001
		c-13.597,0.111-27.195,0.097-40.793,0.123c-0.468,0.001-0.935,0-1.556,0c0,0.698,0,1.246,0,1.793
		c0,16.679-0.008,33.358,0.002,50.037c0.021,40.037,0.053,80.073,0.077,120.11c0.003,4.913,0.9,9.64,3.231,13.989
		c4.109,7.665,10.697,11.751,19.202,12.892c1.657,0.223,3.348,0.285,5.022,0.287c36.477,0.042,72.954,0.071,109.431,0.09
		c22.719,0.012,45.438,0.013,68.157-0.001c18.797-0.011,37.596,0.009,56.393-0.129c3.609-0.026,7.266-0.46,10.811-1.161
		c7.074-1.397,12.237-5.583,15.885-11.742c2.649-4.472,4.303-9.343,5.845-14.263c10.448-33.33,20.901-66.657,31.333-99.991
		c4.745-15.163,9.47-30.332,14.152-45.514c1.187-3.846,1.736-7.794,1.237-11.838c-0.775-6.279-4.347-10.292-10.118-12.524
		c-4.208-1.627-8.622-2.007-13.074-2.025c-15.196-0.064-30.394-0.063-45.59-0.146c-4.328-0.023-8.04-1.537-10.336-5.412
		c-3.439-5.804-0.338-13.009,6.396-14.918c1.4-0.396,2.913-0.529,4.377-0.55c7.516-0.103,15.036-0.272,22.55-0.146
		c8.948,0.151,17.901,0.411,26.834,0.934c8.202,0.48,16.159,2.184,23.302,6.555c10.146,6.209,15.921,15.217,17.188,27.076
		c0.023,0.218,0.14,0.426,0.213,0.639c0,2,0,4,0,6c-0.068,0.223-0.155,0.44-0.202,0.667c-0.715,3.474-1.13,7.04-2.179,10.409
		c-14.142,45.436-28.355,90.848-42.597,136.252c-2.258,7.195-4.54,14.396-7.173,21.458c-2.565,6.882-6.524,12.992-11.857,18.11
		c-8.525,8.183-18.97,11.915-30.542,12.749c-4.978,0.359-9.985,0.336-14.98,0.381c-9.437,0.085-18.875,0.119-28.312,0.129
		c-18.838,0.018-37.676-0.006-56.514,0.007c-46.595,0.033-93.19,0.096-139.785,0.101c-7.998,0-15.74-1.443-23.015-4.914
		c-1.682-0.803-3.295-1.746-4.963-2.638c-0.063,0.165-0.135,0.271-0.139,0.379c-0.193,5.952-0.515,11.913,0.355,17.839
		c0.893,6.088,3.442,11.37,8.033,15.549c5.678,5.168,12.518,7.162,20.054,7.162c83.914,0.001,167.828-0.001,251.742,0.016
		c1.471,0.001,2.968,0.087,4.407,0.368c7.346,1.436,10.886,9.334,6.957,15.543c-2.276,3.599-5.754,5.047-9.891,5.067
		c-7.119,0.036-14.237,0.033-21.356,0.047c-0.407,0-0.814,0-1.397,0c0.342,0.749,0.572,1.252,0.801,1.755
		c2.297,5.075,3.785,10.355,3.859,15.957c0.082,6.134-1.567,11.858-4.463,17.215c-5.508,10.185-13.609,17.11-25.114,19.639
		c-1.626,0.357-3.286,0.56-4.931,0.834c-1.92,0-3.84,0-5.76,0c-1.486-0.24-2.984-0.423-4.457-0.729
		c-14.721-3.066-24.64-11.692-29.299-25.979c-2.967-9.098-1.708-18.08,1.988-26.784c0.226-0.53,0.438-1.066,0.669-1.631
		c-27.874,0-55.606,0-83.469,0c0.275,0.609,0.497,1.109,0.726,1.606c4.328,9.402,5.159,18.993,1.259,28.721
		c-4.827,12.037-13.183,20.317-25.945,23.688c-1.946,0.514-3.966,0.746-5.952,1.108C200.15,448.267,198.15,448.267,196.15,448.267z
		 M365.677,409.854c0.451-7.701-7.021-15.575-15.254-16.075c-9.553-0.58-17.646,6.181-18.192,15.198
		c-0.588,9.696,6.07,17.577,15.297,18.172C358.125,427.83,365.496,420.503,365.677,409.854z M198.51,427.146
		c9.861,0.001,16.534-6.811,16.561-16.902c0.023-9.289-7.126-16.505-16.346-16.497c-9.553,0.007-16.768,7.164-16.767,16.631
		C181.96,420.053,188.963,427.146,198.51,427.146z"/>
	<path fill-rule="evenodd" clip-rule="evenodd" fill="#FFFFFF" d="M242.652,230.827c0-37.618,0-75.119,0-112.801
		c-0.412,0-0.833,0.008-1.253-0.001c-3.675-0.077-7.392,0.169-11.016-0.3c-8.812-1.138-11.074-8.997-8.76-14.603
		c1.523-3.689,4.594-5.568,8.38-5.923c3.848-0.36,7.744-0.217,11.618-0.292c0.468-0.009,0.937-0.001,1.528-0.001
		c0-3.479-0.087-6.83,0.035-10.174c0.066-1.816,0.234-3.703,0.795-5.415c2.374-7.25,10.863-9.619,16.449-4.647
		c2.395,2.132,3.508,4.955,3.646,8.093c0.15,3.433,0.087,6.875,0.115,10.313c0.003,0.469,0,0.938,0,1.478c5.648,0,11.146,0,16.801,0
		c0-0.614-0.014-1.162,0.002-1.709c0.111-3.792-0.062-7.621,0.419-11.366c0.579-4.512,2.974-7.943,7.672-9.108
		c5.737-1.423,10.947,1.984,12.373,8.061c0.37,1.579,0.506,3.237,0.55,4.865c0.083,3.15,0.024,6.305,0.024,9.351
		c3.37,0.854,6.672,1.489,9.842,2.526c16.281,5.323,25.883,16.686,29.47,33.244c3.284,15.165-1.218,28.064-11.804,39.083
		c-0.853,0.887-1.729,1.752-2.668,2.702c13.944,12.965,18.999,28.467,13.172,46.905c-5.857,18.538-19.305,27.851-38.012,30.615
		c0,3.495,0.062,6.891-0.027,10.282c-0.042,1.625-0.164,3.3-0.604,4.852c-1.442,5.083-5.405,7.852-10.651,7.647
		c-4.518-0.176-8.378-3.646-9.352-8.552c-0.293-1.478-0.359-3.015-0.389-4.526c-0.058-2.988-0.017-5.978-0.017-9.042
		c-5.664,0-11.123,0-16.729,0c-0.023,0.425-0.064,0.845-0.068,1.267c-0.031,3.078,0.038,6.161-0.12,9.232
		c-0.085,1.654-0.356,3.356-0.893,4.917c-1.415,4.113-4.872,6.563-9.043,6.665c-4.45,0.109-8.002-2.167-9.792-6.193
		c-1.156-2.599-1.234-5.348-1.268-8.105c-0.032-2.708-0.007-5.417-0.007-8.261c-2.985,0-5.776,0.085-8.558-0.028
		c-1.945-0.08-3.941-0.196-5.807-0.699c-8.969-2.42-9.267-11.907-5.675-16.285c1.941-2.366,4.55-3.575,7.496-3.795
		c3.54-0.264,7.106-0.197,10.661-0.271C241.66,230.818,242.13,230.827,242.652,230.827z M264.347,163.532
		c0.315,0.024,0.509,0.05,0.702,0.051c11.156,0.057,22.313,0.211,33.467,0.136c11.813-0.079,21.098-8.562,22.489-20.285
		c1.608-13.55-8.728-25.29-22.384-25.358c-11.036-0.056-22.072-0.035-33.109-0.046c-0.383,0-0.766,0.034-1.165,0.053
		C264.347,133.271,264.347,148.34,264.347,163.532z M264.501,230.18c0.808,0.044,1.554,0.11,2.301,0.123
		c4.077,0.066,8.155,0.206,12.231,0.16c7.83-0.087,15.661-0.238,23.489-0.454c2.745-0.075,5.346-0.873,7.752-2.247
		c8.56-4.891,13.019-16.392,10.048-26.393c-2.217-7.456-6.695-13.12-14.414-15.204c-3.677-0.992-7.671-1.021-11.528-1.09
		c-7.594-0.136-15.192,0.007-22.79,0.03c-2.347,0.008-4.694,0.001-7.089,0.001C264.501,200.261,264.501,215.16,264.501,230.18z"/>
</g>
</svg>
