<?xml version="1.0" encoding="utf-8"?>
<!-- Generator: Adobe Illustrator 16.0.0, SVG Export Plug-In . SVG Version: 6.00 Build 0)  -->
<!DOCTYPE svg PUBLIC "-//W3C//DTD SVG 1.1//EN" "http://www.w3.org/Graphics/SVG/1.1/DTD/svg11.dtd">
<svg version="1.1" id="Layer_1" xmlns="http://www.w3.org/2000/svg" xmlns:xlink="http://www.w3.org/1999/xlink" x="0px" y="0px"
	 width="110px" height="110px" viewBox="0 0 110 110" enable-background="new 0 0 110 110" xml:space="preserve">
<g>
	<linearGradient id="SVGID_1_" gradientUnits="userSpaceOnUse" x1="53.9844" y1="36.748" x2="57.4844" y2="69.248">
		<stop  offset="0" style="stop-color:#15D4FF"/>
		<stop  offset="1" style="stop-color:#5245FF"/>
	</linearGradient>
	<path fill="url(#SVGID_1_)" d="M37.225,78.514c-1.6,0-3.2,0-4.8,0c-0.222-0.072-0.437-0.18-0.663-0.217
		c-9.764-1.592-16.149-7.138-19.235-16.496c-0.445-1.35-0.66-2.775-0.981-4.166c0-1.761,0-3.521,0-5.281
		c0.083-0.296,0.19-0.589,0.246-0.891c1.646-8.85,6.535-15.066,15.011-18.273c1.803-0.682,3.745-0.994,5.623-1.477
		c1.68,0,3.36,0,5.04,0c0.064,0.046,0.123,0.125,0.192,0.134c5.776,0.747,10.404,3.528,14.218,7.862
		c1.951,2.217,4.521,3.208,7.478,3.165c1.955-0.028,3.91-0.06,5.867-0.079c5.62-0.056,11.243-0.103,16.865-0.162
		c2.534-0.026,5.025,0.213,7.387,1.216c5.049,2.148,8.272,6.208,11.112,10.665c0,0.48,0,0.96,0,1.44
		c-0.91,1.198-1.751,2.46-2.748,3.583c-1.562,1.76-3.264,3.396-4.844,5.139c-3.084,3.401-5.74,3.326-8.603-0.301
		c-1.873-2.378-3.383-2.4-5.463-0.13c-0.807,0.882-1.629,1.769-2.551,2.522c-2.792,2.291-5.535,2.159-8.148-0.312
		c-0.317-0.302-0.61-0.631-0.91-0.953c-1.07-1.153-1.59-1.205-2.602,0.045c-1.822,2.257-4.189,3.229-6.982,2.849
		c-2.581-0.354-4.343,0.74-5.965,2.531c-2.196,2.426-4.774,4.414-7.831,5.6C41.769,77.367,39.467,77.863,37.225,78.514z
		 M94.779,57.635c-0.678,0-1.036,0-1.396,0c-11.68-0.014-23.358-0.025-35.036-0.047c-0.677-0.002-1.361-0.047-2.027-0.163
		c-2.207-0.386-3.458-1.784-3.533-3.885c-0.089-2.446,0.963-3.957,3.221-4.516c0.69-0.171,1.422-0.258,2.133-0.259
		c10.398-0.016,20.799-0.011,31.196-0.011c0.423,0,0.847,0,1.271,0c0.07-0.132,0.142-0.264,0.211-0.396
		c-0.733-0.523-1.405-1.212-2.223-1.521c-0.789-0.298-1.727-0.273-2.598-0.273c-9.4-0.003-18.799-0.021-28.197,0.05
		c-3.339,0.025-5.891-1.221-7.967-3.836c-6.017-7.584-16.363-9.618-24.703-4.954C16.502,42.65,12.739,52.52,16.1,61.688
		c5.483,14.955,23.018,16.843,31.873,7.888c1.283-1.3,2.756-2.439,4.256-3.49c2.107-1.479,4.521-2.028,7.07-1.625
		c1,0.159,1.717-0.092,2.346-0.803c0.742-0.839,1.43-1.73,2.23-2.505c1.637-1.58,3.159-1.461,4.617,0.271
		c0.514,0.611,0.996,1.254,1.564,1.813c1.422,1.396,2.805,1.524,4.394,0.304c0.909-0.699,1.698-1.569,2.487-2.414
		c2.858-3.062,6.584-3.063,9.408,0.021c0.27,0.293,0.532,0.598,0.826,0.865c1.454,1.329,2.574,1.28,3.921-0.15
		c0.875-0.93,1.767-1.848,2.623-2.795C94.052,58.695,94.316,58.264,94.779,57.635z M96.148,54.234
		c-0.213-0.388-0.285-0.572-0.401-0.72c-0.86-1.091-2.099-1.034-3.294-1.035c-10.957-0.009-21.914-0.004-32.87-0.007
		c-0.519,0-1.065-0.134-1.549-0.01c-0.415,0.106-0.761,0.491-1.138,0.753c0.305,0.301,0.559,0.732,0.924,0.869
		c0.466,0.175,1.021,0.145,1.537,0.146c11.797,0.006,23.594,0.005,35.389,0.005C95.139,54.234,95.529,54.234,96.148,54.234z"/>
	<linearGradient id="SVGID_2_" gradientUnits="userSpaceOnUse" x1="25.5786" y1="39.8071" x2="29.0786" y2="72.3071">
		<stop  offset="0" style="stop-color:#15D4FF"/>
		<stop  offset="1" style="stop-color:#5245FF"/>
	</linearGradient>
	<path fill="url(#SVGID_2_)" d="M35.904,55.176c-0.007,5.08-3.518,8.626-8.568,8.657c-5.201,0.032-8.803-3.59-8.791-8.839
		c0.011-4.994,3.624-8.581,8.662-8.599C32.357,46.376,35.911,49.965,35.904,55.176z M21.905,55.055
		c0.011,3.246,2.165,5.458,5.269,5.414c3.221-0.049,5.451-2.195,5.484-5.283c0.033-2.954-2.346-5.412-5.254-5.43
		C24.083,49.736,21.895,51.845,21.905,55.055z"/>
	<linearGradient id="SVGID_3_" gradientUnits="userSpaceOnUse" x1="31.9092" y1="39.1255" x2="35.4092" y2="71.6255">
		<stop  offset="0" style="stop-color:#15D4FF"/>
		<stop  offset="1" style="stop-color:#5245FF"/>
	</linearGradient>
	<path fill="url(#SVGID_3_)" d="M48.386,66.249c-0.565,1.678-1.626,2.999-2.979,4.099c-6.31,5.131-17.855,4.365-23.452-1.549
		c-0.164-0.174-0.429-0.35-0.449-0.545c-0.067-0.656-0.264-1.429-0.006-1.961c0.364-0.752,1.234-0.902,1.984-0.465
		c0.997,0.58,1.917,1.293,2.895,1.91c5.515,3.484,11.039,3.492,16.562,0.012c0.574-0.361,1.152-0.723,1.69-1.134
		C45.764,65.751,46.941,65.364,48.386,66.249z"/>
</g>
</svg>
