<svg xmlns="http://www.w3.org/2000/svg" width="22" height="22" viewBox="0 0 22 22">
  <g id="change-password-active" transform="translate(-44 -536)">
    <path id="Refresh" d="M13.933.408A10.537,10.537,0,0,1,17.2,1.917,11.194,11.194,0,0,1,19.75,4.345a11.068,11.068,0,0,1,1.66,3.1,11.016,11.016,0,0,1,.2,6.472A11.124,11.124,0,0,1,20.5,16.554,10.979,10.979,0,0,1,16.554,20.5a11.124,11.124,0,0,1-2.632,1.106,11.083,11.083,0,0,1-5.844,0A11.124,11.124,0,0,1,5.446,20.5,10.979,10.979,0,0,1,1.5,16.554,11.148,11.148,0,0,1,.392,13.927,11.03,11.03,0,0,1,.4,8.078,11.215,11.215,0,0,1,1.531,5.409,10.839,10.839,0,0,1,3.319,3.131,11.027,11.027,0,0,1,5.693,1.375H2.75V0h5.5V5.5H6.875V2.31A9.648,9.648,0,0,0,1.762,8.3a9.615,9.615,0,0,0-.043,5.248,9.676,9.676,0,0,0,6.725,6.73,9.659,9.659,0,0,0,5.108,0,9.676,9.676,0,0,0,6.73-6.725A9.585,9.585,0,0,0,20.1,7.9a9.715,9.715,0,0,0-3.685-4.839,9.319,9.319,0,0,0-2.852-1.327Z" transform="translate(44 536)" fill="#fff"/>
    <path id="XMLID_1385_" d="M20.8,4.2h-.3V3.51a2.4,2.4,0,1,0-4.8,0V4.2h-.3a.4.4,0,0,0-.4.4v5a.4.4,0,0,0,.4.4h5.4a.4.4,0,0,0,.4-.4v-5A.4.4,0,0,0,20.8,4.2Zm-4.3-.69a1.6,1.6,0,1,1,3.2,0V4.2H16.5ZM20.4,9.2H15.8V5h4.6Z" transform="translate(36.9 541.5)" fill="#fff"/>
  </g>
</svg>
