<?xml version="1.0" encoding="utf-8"?>
<!-- Generator: Adobe Illustrator 16.0.0, SVG Export Plug-In . SVG Version: 6.00 Build 0)  -->
<!DOCTYPE svg PUBLIC "-//W3C//DTD SVG 1.1//EN" "http://www.w3.org/Graphics/SVG/1.1/DTD/svg11.dtd">
<svg version="1.1" id="Isolation_Mode" xmlns="http://www.w3.org/2000/svg" xmlns:xlink="http://www.w3.org/1999/xlink" x="0px"
	 y="0px" width="500px" height="500px" viewBox="0 0 500 500" enable-background="new 0 0 500 500" xml:space="preserve">
<g>
	<path fill-rule="evenodd" clip-rule="evenodd" fill="#FFFFFF" d="M250.171,480.22c-12.936-16.276-25.812-32.017-38.193-48.139
		c-35.309-45.991-68.16-93.61-94.023-145.688c-12.038-24.238-22.549-49.129-27.282-75.98c-8.094-45.923,2.883-87.488,31.083-124.07
		c31.413-40.75,73.635-61.844,125.036-63.766c77.955-2.915,150.524,57.005,163.688,133.841c5.656,33.018-0.167,64.114-11.957,94.694
		c-17.161,44.509-40.918,85.525-68.432,124.189c-24.779,34.822-51.535,68.24-77.43,102.267
		C252.082,478.327,251.351,478.972,250.171,480.22z M250.326,444.129c1.81-2.096,3.192-3.51,4.362-5.084
		c18.644-25.103,37.843-49.821,55.744-75.446c25.675-36.755,48.766-75.093,65.493-116.912c11.399-28.5,18.612-57.693,11.809-88.546
		c-12.858-58.32-48.173-96.639-106.205-109.946c-57.268-13.132-106.12,4.99-142.2,51.603
		c-32.125,41.503-36.101,87.934-18.044,136.787c12.655,34.237,30.119,65.967,49.427,96.767
		C194.744,371.686,221.432,408.116,250.326,444.129z"/>
	<path fill-rule="evenodd" clip-rule="evenodd" fill="#FFFFFF" d="M250.686,123.472c34.201,0.141,61.656,28.038,61.447,62.438
		c-0.201,33.23-28.578,61.212-61.874,61.012c-33.99-0.205-61.635-28.396-61.431-62.648
		C189.027,150.854,217.024,123.334,250.686,123.472z M289.473,184.797c-0.082-21.294-17.661-38.783-38.985-38.787
		c-21.586-0.003-39.077,17.659-38.989,39.371c0.085,21.232,17.762,38.871,38.968,38.886
		C271.885,224.284,289.556,206.403,289.473,184.797z"/>
</g>
</svg>
