<?xml version="1.0" encoding="utf-8"?>
<!-- Generator: Adobe Illustrator 16.0.0, SVG Export Plug-In . SVG Version: 6.00 Build 0)  -->
<!DOCTYPE svg PUBLIC "-//W3C//DTD SVG 1.1//EN" "http://www.w3.org/Graphics/SVG/1.1/DTD/svg11.dtd">
<svg version="1.1" id="Isolation_Mode" xmlns="http://www.w3.org/2000/svg" xmlns:xlink="http://www.w3.org/1999/xlink" x="0px"
	 y="0px" width="500px" height="500px" viewBox="0 0 500 500" enable-background="new 0 0 500 500" xml:space="preserve">
<g>
	<path fill-rule="evenodd" clip-rule="evenodd" fill="#FFFFFF" d="M83.25,427.19c10.86,0,21.126,0,31.942,0
		c0,5.221,0,10.285,0,15.568c96.14,0,191.729,0,287.688,0c0-127.697,0-255.4,0-383.432c-95.658,0-191.364,0-287.444,0
		c0,15.683,0,31.284,0,47.278c-10.747,0-21.134,0-31.906,0c-0.089-1.325-0.267-2.762-0.268-4.198
		c-0.019-19.163-0.029-38.326-0.007-57.49c0.015-11.605,6.313-17.909,17.928-17.911c105.316-0.01,210.633-0.01,315.948-0.001
		c11.896,0.001,18.113,6.261,18.114,18.229c0.006,137.144,0.006,274.288,0,411.433c0,12.214-6.184,18.33-18.514,18.331
		c-104.981,0.005-209.964,0.005-314.946,0c-12.333-0.001-18.515-6.118-18.533-18.312C83.238,447.034,83.25,437.384,83.25,427.19z"/>
	<path fill-rule="evenodd" clip-rule="evenodd" fill="#FFFFFF" d="M173.901,182.7c-16.833,16.957-33.929,34.178-51.677,52.056
		c56.637,0,112.479,0,168.672,0c0,10.889,0,21.273,0,32.128c-55.92,0-111.805,0-168.05,0c17.56,17.662,34.713,34.916,51.562,51.863
		c-8.032,8.056-15.413,15.458-23.451,23.52c-2.205-2.476-4.506-5.327-7.08-7.907c-23.412-23.479-46.881-46.904-70.315-70.363
		c-8.71-8.718-8.696-17.29,0.039-26.032c24.968-24.989,49.951-49.962,74.936-74.934c1.04-1.038,2.147-2.009,2.993-2.796
		C159.063,167.8,166.439,175.208,173.901,182.7z"/>
</g>
</svg>
