<?xml version="1.0" encoding="utf-8"?>
<!-- Generator: Adobe Illustrator 16.0.0, SVG Export Plug-In . SVG Version: 6.00 Build 0)  -->
<!DOCTYPE svg PUBLIC "-//W3C//DTD SVG 1.1//EN" "http://www.w3.org/Graphics/SVG/1.1/DTD/svg11.dtd">
<svg version="1.1" id="Isolation_Mode" xmlns="http://www.w3.org/2000/svg" xmlns:xlink="http://www.w3.org/1999/xlink" x="0px"
	 y="0px" width="500px" height="500px" viewBox="0 0 500 500" enable-background="new 0 0 500 500" xml:space="preserve">
<g>
	<path fill-rule="evenodd" clip-rule="evenodd" fill="#FFFFFF" d="M451.597,460c-134.16,0-268.32,0-402.479,0
		c-1.642-0.24-3.286-0.461-4.923-0.727c-14.803-2.387-25.365-12.578-28.224-27.248c-0.364-1.865-0.625-3.75-0.934-5.625
		c0-93.92,0-187.84,0-281.76c0.07-0.262,0.167-0.521,0.208-0.787c0.332-2.13,0.524-4.291,1.001-6.387
		c2.19-9.631,7.256-17.232,16.033-22.073c6.307-3.479,13.179-4.812,20.305-4.818c33.435-0.033,66.87-0.015,100.305-0.015
		c0.504,0,1.008,0,1.588,0c0-0.628,0-1.102,0-1.575c0-12.799-0.025-25.597,0.022-38.395c0.009-2.51,0.173-5.035,0.482-7.526
		c1.413-11.375,8.365-18.972,19.55-21.436c1.699-0.374,3.43-0.609,5.146-0.908c47.2,0,94.4,0,141.6,0
		c1.839,0.323,3.696,0.562,5.512,0.984c8.022,1.871,13.939,6.364,17.174,14.075c1.773,4.228,2.381,8.693,2.388,13.243
		c0.02,13.318,0.007,26.636,0.007,39.953c0,0.5,0,1,0,1.584c0.701,0,1.215,0,1.729,0c33.234,0,66.469-0.02,99.703,0.032
		c3.023,0.004,6.097,0.188,9.061,0.746c13.989,2.632,23.263,10.641,27.3,24.446c1.582,5.411,1.568,10.968,1.568,16.527
		c-0.001,88.586,0.003,177.17-0.011,265.756c-0.001,4.352,0.024,8.699-0.726,13.029c-2.55,14.732-12.671,25.141-27.388,27.971
		C455.608,459.451,453.597,459.693,451.597,460z M461.396,262.816c-52.005,0-103.886,0-155.92,0c0,2.014,0.031,3.93-0.005,5.846
		c-0.191,10.152-7.448,18.088-17.537,18.773c-5.535,0.375-11.109,0.232-16.666,0.234c-18.799,0.012-37.597-0.008-56.396-0.037
		c-3.95-0.006-7.703-0.861-11.051-3.051c-5.876-3.842-8.44-9.494-8.733-16.326c-0.076-1.779-0.012-3.563-0.012-5.326
		c-52,0-103.776,0-155.681,0c0,0.602,0,1.111,0,1.621c0,52.236-0.003,104.473,0.017,156.709c0,1.674,0.14,3.359,0.381,5.014
		c0.791,5.434,3.257,7.947,8.729,8.777c2.124,0.322,4.297,0.451,6.447,0.451c130.631,0.02,261.262,0.02,391.893,0.008
		c1.556,0,3.117-0.09,4.666-0.246c5.313-0.529,8.435-3.24,9.377-8.213c0.296-1.563,0.471-3.174,0.472-4.764
		c0.023-52.715,0.02-105.432,0.02-158.148C461.396,263.709,461.396,263.279,461.396,262.816z M305.677,237.452
		c51.977,0,103.787,0,155.72,0c0-0.496,0-0.926,0-1.355c0-28.999,0.008-57.997-0.019-86.995c-0.001-1.791-0.15-3.599-0.434-5.366
		c-0.786-4.903-3.441-7.606-8.324-8.447c-1.802-0.31-3.652-0.468-5.481-0.469c-131.193-0.021-262.387-0.021-393.579,0.001
		c-1.869,0-3.758,0.175-5.602,0.485c-4.343,0.734-7.153,3.22-8.002,7.627c-0.316,1.639-0.535,3.325-0.537,4.989
		c-0.031,29.398-0.022,58.797-0.022,88.195c0,0.464,0,0.929,0,1.429c52.024,0,103.873,0,155.841,0c0-0.563-0.017-1.036,0.002-1.508
		c0.084-2.155,0.039-4.325,0.291-6.461c1.143-9.694,9.003-16.691,18.778-16.771c7.837-0.064,15.675-0.118,23.513-0.118
		c14.798,0.002,29.596,0.045,44.394,0.074c1.56,0.003,3.122-0.026,4.679,0.05c4.433,0.216,8.492,1.526,11.917,4.423
		c4.747,4.014,6.635,9.347,6.857,15.39C305.727,234.21,305.677,235.801,305.677,237.452z M321.752,110.059
		c0.019-0.401,0.043-0.678,0.043-0.954c0.002-13.559,0.005-27.118-0.006-40.678c-0.001-0.756-0.124-1.511-0.17-2.267
		c-0.042-0.689-0.402-0.97-1.077-0.995c-1.156-0.043-2.312-0.196-3.468-0.196c-44.478-0.011-88.956-0.01-133.434-0.008
		c-0.76,0-1.52,0.017-2.278,0.038c-2.617,0.073-2.843,0.297-2.844,2.921c-0.004,13.639-0.002,27.277,0.001,40.916
		c0,0.389,0.033,0.777,0.054,1.223C226.322,110.059,273.981,110.059,321.752,110.059z M219.81,262.395c20.429,0,40.756,0,61.049,0
		c0-8.256,0-16.426,0-24.571c-20.396,0-40.696,0-61.049,0C219.81,246.03,219.81,254.172,219.81,262.395z"/>
</g>
</svg>
