<?xml version="1.0" encoding="utf-8"?>
<!-- Generator: Adobe Illustrator 16.0.0, SVG Export Plug-In . SVG Version: 6.00 Build 0)  -->
<!DOCTYPE svg PUBLIC "-//W3C//DTD SVG 1.1//EN" "http://www.w3.org/Graphics/SVG/1.1/DTD/svg11.dtd">
<svg version="1.1" id="Isolation_Mode" xmlns="http://www.w3.org/2000/svg" xmlns:xlink="http://www.w3.org/1999/xlink" x="0px"
	 y="0px" width="500px" height="500px" viewBox="0 0 500 500" enable-background="new 0 0 500 500" xml:space="preserve">
<g>
	<path fill-rule="evenodd" clip-rule="evenodd" fill="#FFFFFF" d="M257.479,39.411c1.767,0.152,3.53,0.338,5.299,0.451
		c24.908,1.581,48.741,7.531,71.518,17.692c22.861,10.199,43.331,23.985,61.348,41.368c28.878,27.861,48.68,61.112,58.988,99.934
		c3.772,14.205,5.975,28.674,6.484,43.366c1.794,51.678-13.438,97.898-45.051,138.685c-20.088,25.916-45.015,46.061-74.415,60.612
		c-18.515,9.162-37.976,15.415-58.368,18.79c-13.598,2.251-27.284,3.146-41.044,2.635c-28.942-1.077-56.5-7.878-82.633-20.371
		c-20.882-9.983-39.693-22.985-56.333-39.08c-30.848-29.837-51.267-65.598-60.76-107.503c-2.65-11.706-4.175-23.577-4.649-35.576
		c-0.013-0.313-0.133-0.622-0.202-0.934c0-5.348,0-10.694,0-16.042c0.093-0.978,0.22-1.955,0.274-2.935
		c1.017-18.512,4.349-36.592,10.192-54.191c11.04-33.256,29.207-62.055,54.267-86.518c16.9-16.499,36.013-29.849,57.331-40.014
		c24.145-11.512,49.562-18.207,76.274-19.92c1.815-0.116,3.626-0.298,5.44-0.45C246.785,39.411,252.133,39.411,257.479,39.411z
		 M60.427,251.114c0,2.17-0.05,4.341,0.008,6.508c0.391,14.58,2.465,28.925,6.224,43.011c9.104,34.121,26.317,63.493,51.83,87.932
		c19.926,19.087,43.024,33.006,69.155,41.845c22.539,7.624,45.718,10.817,69.493,9.849c14.025-0.572,27.839-2.531,41.405-6.113
		c33.581-8.865,62.615-25.606,86.916-50.462c14.155-14.48,25.574-30.896,34.353-49.142c11.973-24.889,18.058-51.199,18.83-78.76
		c0.339-12.046-0.494-24.025-2.417-35.931c-3.008-18.623-8.645-36.403-17-53.315c-9.713-19.655-22.49-37.065-38.323-52.235
		c-14.746-14.129-31.354-25.562-49.843-34.215c-27.862-13.042-57.205-18.89-87.939-17.919c-13.565,0.428-26.945,2.191-40.107,5.481
		c-34.866,8.713-64.909,25.865-89.98,51.65c-13.017,13.388-23.726,28.443-32.168,45.088C67.04,191.634,60.4,220.606,60.427,251.114z
		"/>
	<path fill-rule="evenodd" clip-rule="evenodd" fill="#FFFFFF" d="M314.169,192.884c-0.538,23.432-5.447,45.358-15.374,66.042
		c-5.242,10.924-12.497,20.441-22.166,27.897c-8.024,6.188-17.161,9.423-27.344,9.179c-10.149-0.244-19.116-3.922-27.134-10.018
		c-11.541-8.772-19.535-20.242-25.039-33.503c-6.042-14.56-10.066-29.671-11.869-45.356c-0.999-8.697-1.347-17.384-0.214-26.1
		c2.456-18.892,11.058-33.834,27.897-43.464c7.02-4.013,14.671-6.189,22.657-7.087c11.585-1.302,23.114-0.915,34.407,2.21
		c17.183,4.753,30.144,14.863,38.204,30.9c3.554,7.069,5.117,14.699,5.671,22.548C314.034,188.547,314.086,190.969,314.169,192.884z
		 M206.577,195.123c0.097,1.687,0.163,4.026,0.375,6.351c0.796,8.75,2.633,17.31,4.923,25.775
		c3.061,11.32,7.508,22.01,14.565,31.486c2.954,3.968,6.136,7.718,10.414,10.354c6.621,4.08,13.626,5.578,21.157,2.908
		c5.447-1.931,9.414-5.746,12.69-10.364c5.216-7.354,9.404-15.256,12.596-23.688c3.803-10.045,6.068-20.454,7.223-31.107
		c0.777-7.18,1.418-14.391,0.552-21.604c-1.809-15.071-9.749-25.396-24.248-30.222c-11.58-3.855-23.402-3.849-35.198-1.007
		c-10.295,2.48-17.447,8.724-21.316,18.637C207.571,179.664,206.688,187.002,206.577,195.123z"/>
	<path fill-rule="evenodd" clip-rule="evenodd" fill="#FFFFFF" d="M249.353,340.896c3.131-2.924,6.243-5.762,9.278-8.68
		c7.162-6.886,14.338-13.757,21.407-20.736c5.128-5.061,11.049-6.948,18.074-5.135c19.419,5.012,38.851,9.979,58.247,15.083
		c3.37,0.887,6.669,2.17,9.863,3.58c9.284,4.1,14.61,11.424,16.839,21.192c1.843,8.075,2.437,16.249,1.984,24.501
		c-0.328,5.96-5.116,10.331-11.139,10.3c-6.031-0.031-10.836-4.405-11.131-10.329c-0.244-4.876-0.233-9.764-0.424-14.642
		c-0.069-1.786-0.315-3.574-0.615-5.339c-0.399-2.337-1.676-4.164-3.925-4.973c-3.13-1.127-6.31-2.153-9.525-2.999
		c-16.895-4.449-33.814-8.809-50.709-13.257c-1.926-0.508-3.342-0.133-4.722,1.287c-10.622,10.928-21.272,21.827-31.95,32.702
		c-1.397,1.424-2.893,2.796-4.514,3.948c-4.127,2.932-8.405,2.945-12.382-0.183c-2.511-1.976-4.751-4.32-6.987-6.619
		c-6.201-6.373-12.345-12.803-18.494-19.226c-3.291-3.438-6.572-6.884-9.803-10.375c-1.414-1.529-2.938-2.077-5.03-1.541
		c-19.106,4.889-38.229,9.717-57.346,14.569c-0.767,0.195-1.512,0.475-2.278,0.676c-4.603,1.213-6.913,4.3-7.154,8.947
		c-0.25,4.79-0.373,9.588-0.543,14.383c-0.105,3.001-0.581,5.904-2.333,8.441c-2.515,3.642-7.084,5.267-11.762,4.216
		c-4.405-0.988-7.582-4.229-8.117-8.765c-0.3-2.546-0.164-5.159-0.033-7.732c0.319-6.299,0.804-12.599,2.36-18.729
		c3.141-12.377,11.191-19.907,23.431-23.021c21.903-5.568,43.832-11.039,65.744-16.573c5.434-1.372,10.144-0.037,13.991,3.907
		c5.74,5.889,11.309,11.942,16.979,17.898C240.833,332.088,245.078,336.456,249.353,340.896z"/>
</g>
</svg>
