<?xml version="1.0" encoding="utf-8"?>
<!-- Generator: Adobe Illustrator 16.0.0, SVG Export Plug-In . SVG Version: 6.00 Build 0)  -->
<!DOCTYPE svg PUBLIC "-//W3C//DTD SVG 1.1//EN" "http://www.w3.org/Graphics/SVG/1.1/DTD/svg11.dtd">
<svg version="1.1" id="Isolation_Mode" xmlns="http://www.w3.org/2000/svg" xmlns:xlink="http://www.w3.org/1999/xlink" x="0px"
	 y="0px" width="500px" height="500px" viewBox="0 0 500 500" enable-background="new 0 0 500 500" xml:space="preserve">
<g>
	<path fill-rule="evenodd" clip-rule="evenodd" fill="#FFFFFF" d="M78.116,488.687c-5.559-2.718-7.246-7.269-7.242-13.286
		c0.09-137.07,0.043-274.142,0.211-411.213c0.004-3.428,1.444-7.359,3.441-10.191c7.42-10.521,15.321-20.703,23.1-30.966
		c7.059-9.315,17.532-9.309,24.513,0.003c5.088,6.789,10.092,13.643,15.511,20.979c5.159-7.067,9.967-13.676,14.798-20.268
		c7.828-10.682,18.082-10.708,25.855-0.07c4.842,6.628,9.663,13.271,14.902,20.47c5.014-6.85,9.734-13.312,14.469-19.763
		c8.162-11.122,18.259-11.121,26.456-0.007c4.878,6.61,9.754,13.221,15.031,20.375c4.912-6.788,9.604-13.253,14.277-19.735
		c8.584-11.911,18.45-11.91,27.251,0.008c4.581,6.205,9.179,12.4,14.055,18.984c5.191-7.12,10.021-13.752,14.862-20.377
		c7.755-10.619,18.039-10.553,25.862,0.16c4.666,6.391,9.324,12.786,14.006,19.166c0.152,0.208,0.516,0.263,1.234,0.609
		c4.682-6.399,9.544-12.781,14.121-19.36c7.441-10.695,17.922-11.074,25.951-0.773C408.7,33.59,416.813,43.607,424.4,54.006
		c2.032,2.784,3.465,6.738,3.471,10.157c0.177,123.566,0.152,247.133,0.154,370.698c0,13.505-0.183,27.015,0.069,40.515
		c0.111,6.033-1.688,10.563-7.217,13.311C306.624,488.687,192.371,488.687,78.116,488.687z M90.978,468.565
		c106.037,0,211.335,0,317.025,0c0-2.02,0.001-3.707,0-5.394c-0.005-22.194-0.015-44.389-0.015-66.584
		c0.004-108.959,0.014-217.917-0.012-326.876c0-1.825,0.229-4.117-0.72-5.398c-6.061-8.187-12.421-16.151-18.635-24.127
		c-0.703,0.377-1.05,0.451-1.208,0.664c-4.7,6.363-9.379,12.743-14.069,19.113c-8.01,10.877-18.193,10.867-26.144-0.015
		c-4.802-6.571-9.617-13.132-14.396-19.654c-0.763,0.464-1.1,0.562-1.264,0.785c-4.595,6.25-9.171,12.514-13.753,18.772
		c-7.929,10.833-18.156,10.809-26.185-0.063c-4.753-6.436-9.502-12.875-14.513-19.664c-5.394,7.456-10.347,14.389-15.388,21.256
		c-7.232,9.851-17.76,9.804-25.055-0.062c-5.135-6.947-10.262-13.901-15.362-20.812c-0.643,0.362-0.996,0.446-1.162,0.67
		c-4.797,6.484-9.545,13.004-14.364,19.473c-7.462,10.019-17.911,9.906-25.338-0.247c-4.929-6.74-9.835-13.497-15.025-20.62
		c-5.126,7.012-9.934,13.627-14.784,20.212c-7.812,10.608-18.083,10.603-25.9,0.019c-4.844-6.559-9.702-13.106-14.878-20.098
		c-5.628,7.458-11.029,14.231-15.94,21.342c-1.624,2.352-2.8,5.576-2.802,8.403c-0.135,131.309-0.117,262.618-0.117,393.926
		C90.978,465.122,90.978,466.656,90.978,468.565z"/>
	<path fill-rule="evenodd" clip-rule="evenodd" fill="#FFFFFF" d="M209.759,350.058c-22.964-0.001-45.929,0.022-68.896-0.02
		c-5.254-0.01-8.821-2.638-10.176-7.181c-1.211-4.063,0.387-8.723,4.21-10.877c1.795-1.011,4.078-1.617,6.141-1.621
		c45.776-0.084,91.549-0.07,137.325-0.037c6.6,0.003,11.117,4.159,11.065,9.957c-0.053,5.764-4.546,9.754-11.239,9.765
		C255.378,350.081,232.57,350.058,209.759,350.058z"/>
	<path fill-rule="evenodd" clip-rule="evenodd" fill="#FFFFFF" d="M209.933,409.643c-22.966-0.001-45.933,0.049-68.897-0.027
		c-8.031-0.026-12.947-7.02-9.843-13.808c2.061-4.508,5.802-5.954,10.607-5.941c30.104,0.081,60.208,0.036,90.313,0.037
		c15.673,0,31.346-0.038,47.018,0.036c5.283,0.026,8.99,3.091,10.067,7.929c0.905,4.07-1.089,8.757-5.025,10.527
		c-2.023,0.911-4.476,1.191-6.738,1.201C254.934,409.679,232.434,409.646,209.933,409.643z"/>
	<path fill-rule="evenodd" clip-rule="evenodd" fill="#FFFFFF" d="M349.15,330.328c3.415,0.001,6.837-0.142,10.242,0.034
		c5.534,0.284,9.489,4.661,9.378,10.122c-0.105,5.239-4.033,9.377-9.47,9.512c-6.979,0.173-13.971,0.186-20.949-0.021
		c-5.346-0.157-9.375-4.456-9.482-9.592c-0.111-5.299,4.049-9.763,9.575-10.026C342.004,330.188,345.582,330.327,349.15,330.328z"/>
	<path fill-rule="evenodd" clip-rule="evenodd" fill="#FFFFFF" d="M348.72,409.643c-3.413-0.005-6.833,0.126-10.239-0.035
		c-5.352-0.253-9.443-4.396-9.613-9.5c-0.179-5.301,3.921-9.943,9.44-10.117c7.13-0.225,14.278-0.234,21.407,0.002
		c5.073,0.169,8.924,4.48,9.063,9.469c0.143,5.27-3.609,9.601-8.891,10.106c-1.847,0.178-3.722,0.07-5.581,0.08
		C352.443,409.655,350.58,409.649,348.72,409.643z"/>
</g>
<g>
	<path fill-rule="evenodd" clip-rule="evenodd" fill="#FFFFFF" d="M172.491,220.177c0,3.022,0.001,5.769,0,8.515
		c-0.001,8.826,0.024,17.651-0.019,26.475c-0.016,3.406-1.895,6.042-4.8,7.014c-2.831,0.945-6.172,0.14-7.736-2.376
		c-0.922-1.485-1.481-3.446-1.503-5.201c-0.134-10.615-0.066-21.232-0.064-31.85c0-0.806,0-1.61,0-2.572
		c-6.071,0-11.851,0.064-17.628-0.019c-5.508-0.079-8.846-5.737-6.202-10.43c1.409-2.501,3.641-3.664,6.5-3.662
		c4.963,0.002,9.928-0.001,14.891-0.001c0.737,0,1.475,0,2.29,0c0.061-0.688,0.139-1.158,0.141-1.625
		c0.009-4.058,0.005-8.114,0.005-12.349c-0.82-0.05-1.477-0.123-2.135-0.124c-4.895-0.011-9.789,0.005-14.685-0.01
		c-4.736-0.016-7.943-2.924-7.896-7.128c0.049-4.228,3.219-6.983,8.028-6.981c5.445,0.002,10.886,0.001,16.69,0.001
		c0-0.892,0-1.684,0-2.477c0-8.273-0.014-16.547,0.004-24.819c0.016-7.566,4.438-13.146,11.498-14.557
		c6.744-1.348,13.061,2.3,15.948,9.199c4.283,10.228,8.604,20.44,12.822,30.692c0.619,1.505,1.363,2.027,3.02,2.007
		c8.341-0.099,16.683-0.046,25.026-0.046c0.668,0,1.337,0,2.236,0c0-2.897,0-5.567,0-8.238c0.001-8.894-0.041-17.788,0.019-26.681
		c0.035-5.053,4.153-8.363,8.807-7.222c3.229,0.791,5.267,3.497,5.283,7.232c0.036,8.894,0.016,17.788,0.017,26.682
		c0.001,2.671,0,5.341,0,8.231c4.635,0,9.027,0,13.417,0c1.447-0.001,2.896-0.043,4.342,0.005c3.962,0.133,6.944,3.161,6.954,7.011
		c0.008,3.851-2.939,6.981-6.903,7.057c-5.444,0.104-10.893,0.031-16.337,0.042c-0.403,0-0.805,0.067-1.34,0.116
		c0,4.639,0,9.217,0,13.985c5.831,0,11.541-0.032,17.248,0.011c3.765,0.028,6.651,2.403,7.241,5.826
		c0.74,4.294-2.412,8.176-6.843,8.248c-5.24,0.084-10.479,0.025-15.719,0.035c-0.604,0.002-1.208,0.051-2.06,0.088
		c0,2.91,0,5.717,0,8.523c-0.001,6.412,0.049,12.825-0.041,19.235c-0.023,1.767-0.223,3.608-0.765,5.276
		c-1.685,5.181-6.699,9.126-11.544,9.343c-6.633,0.296-12.17-2.937-14.643-8.752c-4.342-10.203-8.667-20.414-12.813-30.696
		c-0.935-2.322-2.005-3.168-4.593-3.1c-8.06,0.21-16.129,0.072-24.196,0.068C173.911,220.177,173.366,220.177,172.491,220.177z
		 M195.663,205.965c-0.032-0.294-0.003-0.578-0.098-0.811c-1.67-4.068-3.308-8.15-5.094-12.167c-0.229-0.52-1.238-0.967-1.892-0.978
		c-4.814-0.083-9.629-0.051-14.443-0.037c-0.52,0.001-1.038,0.115-1.52,0.173c0,4.692,0,9.203,0,13.819
		C180.354,205.965,187.965,205.965,195.663,205.965z M205.504,192.069c1.277,3.094,2.463,6.001,3.674,8.898
		c2.15,5.14,2.157,5.126,7.671,5.103c3.966-0.018,7.934-0.003,11.918-0.003c0-4.821,0-9.384,0-13.998
		C221.008,192.069,213.405,192.069,205.504,192.069z M184.23,177.775c-3.857-9.23-7.598-18.178-11.337-27.125
		c-0.08,0.039-0.161,0.077-0.245,0.115c0,8.977,0,17.953,0,27.011C176.509,177.775,180.206,177.775,184.23,177.775z
		 M217.202,220.289c3.818,9.147,7.557,18.104,11.298,27.062c0.1-0.029,0.199-0.056,0.299-0.083c0-8.956,0-17.912,0-26.979
		C224.939,220.289,221.203,220.289,217.202,220.289z"/>
</g>
</svg>
