<?xml version="1.0" encoding="utf-8"?>
<!-- Generator: Adobe Illustrator 16.0.0, SVG Export Plug-In . SVG Version: 6.00 Build 0)  -->
<!DOCTYPE svg PUBLIC "-//W3C//DTD SVG 1.1//EN" "http://www.w3.org/Graphics/SVG/1.1/DTD/svg11.dtd">
<svg version="1.1" id="Isolation_Mode" xmlns="http://www.w3.org/2000/svg" xmlns:xlink="http://www.w3.org/1999/xlink" x="0px"
	 y="0px" width="500px" height="500px" viewBox="0 0 500 500" enable-background="new 0 0 500 500" xml:space="preserve">
<g>
	<path fill-rule="evenodd" clip-rule="evenodd" fill="#FFFFFF" d="M192.761,52.014c78.599,0,157.196,0,235.795,0
		c0.241,0.062,0.479,0.157,0.725,0.179c3.388,0.312,6.798,0.465,10.162,0.945c11.57,1.649,21.657,6.467,29.904,14.782
		c11.07,11.16,16.075,24.859,16.271,40.42c0.104,8.146,0.053,16.294,0.051,24.442c-0.005,24.998-0.017,49.998-0.037,74.996
		c-0.012,13.664-0.016,27.329-0.095,40.993c-0.02,3.177-0.172,6.369-0.536,9.522c-1.691,14.634-8.156,26.766-19.49,36.193
		c-8.854,7.367-19.063,11.64-30.604,12.155c-8.982,0.401-17.984,0.379-26.978,0.448c-7.184,0.056-14.367-0.043-21.551-0.056
		c-7.962-0.012-15.925-0.003-23.888,0.001c-0.387,0-0.774,0.054-1.235,0.087c0,0.525-0.001,0.927,0,1.329
		c0.024,9.663,0.076,19.325,0.063,28.987c-0.008,5.486-0.353,10.954-1.643,16.311c-4.974,20.662-17.405,34.434-37.809,40.79
		c-7.112,2.216-14.446,2.636-21.84,2.623c-15.073-0.026-30.146,0.013-45.22,0.025c-28.441,0.024-56.884,0.049-85.326,0.073
		c-2.982,0.001-5.769,0.696-8.382,2.175c-24.5,13.857-49.006,27.702-73.518,41.539c-3.735,2.108-7.437,4.289-11.273,6.199
		c-3.313,1.648-6.838,1.899-10.304,0.304c-5.845-2.69-10.542-10.509-5.152-18.608c6.723-10.106,13.487-20.185,20.233-30.276
		c0.321-0.479,0.634-0.965,1.034-1.574c-0.541-0.042-0.896-0.078-1.251-0.098c-5.32-0.284-10.648-0.465-15.958-0.869
		c-13.473-1.024-25.003-6.355-34.386-16.084c-8.815-9.142-13.845-20.118-14.869-32.781c-0.401-4.971-0.2-9.989-0.286-14.984
		c-0.008-0.428-0.117-0.853-0.178-1.279c0-41.632,0-83.266,0-124.898c0.062-0.391,0.175-0.781,0.176-1.173
		c0.017-2.703-0.005-5.407,0.011-8.11c0.052-9.046,2.021-17.662,6.469-25.542c10.361-18.36,26.233-28.123,47.242-29.067
		c10.679-0.481,21.392-0.206,32.09-0.214c12.404-0.011,24.808,0.041,37.213,0.065c0.393,0.001,0.785,0,1.207,0
		c0.02-0.446,0.042-0.738,0.044-1.03c0.039-9.367,0.049-18.733,0.123-28.1c0.042-5.22,0.284-10.426,1.165-15.59
		c4.123-24.163,22.832-41.324,46.691-44.605C189.333,52.422,191.048,52.227,192.761,52.014z M98.208,410.705
		c0.618-0.322,1-0.511,1.37-0.719c17.92-10.09,35.834-20.189,53.763-30.266c3.941-2.215,8.206-3.397,12.723-3.446
		c10.108-0.109,20.216-0.153,30.325-0.195c10.628-0.044,21.257-0.072,31.885-0.075c15.666-0.004,31.332,0,46.998,0.043
		c7.441,0.02,14.883,0.196,22.323,0.188c3.917-0.004,7.88,0.087,11.742-0.446c18.344-2.534,30.793-17.365,31.188-35.651
		c0.104-4.844-0.121-9.694-0.156-14.542c-0.088-11.997-0.183-23.993-0.217-35.989c-0.025-8.739,0.043-17.479,0.063-26.219
		c0.028-11.368,0.052-22.737,0.074-34.106c0.015-7.889,0.075-15.776,0.017-23.665c-0.029-4.102-0.027-8.23-0.476-12.298
		c-0.729-6.631-3.09-12.714-7.36-17.925c-6.598-8.053-15.443-11.601-25.561-12.213c-5.425-0.329-10.878-0.217-16.32-0.223
		c-10.221-0.01-20.44,0.063-30.662,0.059c-19.849-0.008-39.699-0.065-59.548-0.063c-23.776,0.002-47.553,0.04-71.33,0.07
		c-10.368,0.013-20.736,0.05-31.104,0.071c-7.851,0.017-15.704-0.063-23.553,0.078c-3.576,0.064-7.208,0.236-10.703,0.92
		c-9.58,1.875-17.294,6.776-22.546,15.144c-3.78,6.022-4.999,12.772-5.008,19.754c-0.045,35.554-0.058,71.109-0.042,106.664
		c0.005,10.774,0.101,21.55,0.234,32.322c0.041,3.325,0.123,6.678,0.575,9.963c1.016,7.383,4.493,13.571,9.894,18.651
		c5.135,4.83,11.184,7.934,18.253,8.543c5.597,0.482,11.228,0.645,16.847,0.767c6.812,0.146,13.63-0.023,20.438,0.171
		c6.142,0.175,10.505,5.487,9.794,11.573c-0.303,2.596-1.662,4.703-3.077,6.801c-3.478,5.151-6.931,10.321-10.392,15.485
		C98.545,410.103,98.451,410.287,98.208,410.705z M160.542,142.021c0.752,0,1.153,0,1.554,0c46.89,0.012,93.78,0.012,140.67,0.063
		c3.397,0.003,6.82,0.168,10.185,0.609c12.266,1.609,23.003,6.58,31.813,15.324c10.623,10.547,15.646,23.604,16.377,38.376
		c0.302,6.097,0.181,12.216,0.181,18.326c0,15.704-0.045,31.407-0.063,47.11c-0.009,7.594-0.002,15.186-0.002,22.779
		c0,0.389,0,0.778,0,1.313c1.097,0,2.021-0.008,2.942,0c10.922,0.098,21.844,0.239,32.765,0.281
		c7.331,0.027,14.664-0.014,21.993-0.156c5.622-0.109,11.279-0.074,16.851-0.718c12.958-1.497,21.851-8.512,26.567-20.722
		c1.92-4.966,2.104-10.179,2.15-15.409c0.068-8.146,0.166-16.291,0.215-24.437c0.05-8.222,0.085-16.444,0.074-24.666
		c-0.034-25.184-0.089-50.368-0.146-75.553c-0.016-6.516-0.044-13.034-0.118-19.551c-0.046-3.958-0.776-7.798-2.349-11.45
		c-3.367-7.818-9.339-13.124-16.665-17.045c-5.363-2.871-11.25-3.575-17.218-3.579c-61.706-0.034-123.411-0.069-185.117-0.029
		c-16.735,0.011-33.47,0.291-50.205,0.415c-6.09,0.045-11.723,1.67-16.78,5.006c-9.177,6.054-14.638,14.489-15.221,25.596
		c-0.41,7.793-0.349,15.612-0.443,23.421C160.494,132.17,160.542,137.016,160.542,142.021z"/>
	<path fill-rule="evenodd" clip-rule="evenodd" fill="#FFFFFF" d="M188.105,199.173c34.22,0,68.438-0.004,102.658,0.007
		c3.143,0.001,6.162,0.566,8.518,2.851c3.207,3.112,3.761,6.978,2.547,11.068c-1.219,4.113-4.385,6.101-8.454,6.677
		c-1.783,0.252-3.615,0.205-5.426,0.206c-67.068,0.021-134.136,0.037-201.204,0.017c-1.719,0-3.496-0.196-5.145-0.659
		c-5.166-1.451-7.827-5.638-7.305-11.177c0.436-4.621,4.231-8.284,9.163-8.801c1.175-0.123,2.363-0.181,3.545-0.182
		C120.704,199.171,154.404,199.173,188.105,199.173z"/>
	<path fill-rule="evenodd" clip-rule="evenodd" fill="#FFFFFF" d="M188.559,268.696c28.998,0,57.995,0,86.992,0
		c5.369,0,10.74-0.098,16.106,0.03c4.261,0.103,7.809,1.715,9.739,5.803c3.217,6.809-0.876,14.067-8.341,14.836
		c-1.323,0.136-2.657,0.212-3.987,0.212c-67.511,0.011-135.023,0.009-202.535,0.014c-2.171,0-4.288-0.291-6.286-1.155
		c-4.32-1.87-6.441-5.718-5.952-10.713c0.416-4.229,3.511-7.75,7.986-8.525c2.71-0.47,5.522-0.479,8.288-0.482
		C123.232,268.686,155.896,268.696,188.559,268.696z"/>
	<path fill-rule="evenodd" clip-rule="evenodd" fill="#FFFFFF" d="M160.833,254.807c-23.964,0-47.929,0.005-71.894-0.011
		c-2.028-0.001-4.099,0.087-6.078-0.27c-5.787-1.041-8.76-4.951-8.591-10.961c0.141-4.965,3.775-8.751,9.166-9.512
		c1.024-0.144,2.063-0.239,3.096-0.239c49.373-0.024,98.748-0.032,148.121-0.053c3.258-0.002,6.266,0.738,8.713,2.98
		c3.056,2.801,4.063,6.304,3.004,10.295c-1.081,4.07-3.865,6.538-7.911,7.38c-2.041,0.426-4.191,0.441-6.292,0.444
		c-23.777,0.028-47.556,0.018-71.334,0.018C160.833,254.855,160.833,254.831,160.833,254.807z"/>
</g>
</svg>
