<?xml version="1.0" encoding="utf-8"?>
<!-- Generator: Adobe Illustrator 16.0.0, SVG Export Plug-In . SVG Version: 6.00 Build 0)  -->
<!DOCTYPE svg PUBLIC "-//W3C//DTD SVG 1.1//EN" "http://www.w3.org/Graphics/SVG/1.1/DTD/svg11.dtd">
<svg version="1.1" id="Isolation_Mode" xmlns="http://www.w3.org/2000/svg" xmlns:xlink="http://www.w3.org/1999/xlink" x="0px"
	 y="0px" width="500px" height="500px" viewBox="0 0 500 500" enable-background="new 0 0 500 500" xml:space="preserve">
<g>
	<path fill-rule="evenodd" clip-rule="evenodd" fill="#0EB05B" d="M249.343,153.59c-72.96,0-145.92,0.008-218.879-0.041
		c-2.162-0.001-4.38-0.39-6.473-0.961c-5.684-1.551-8.027-10.391-2.712-14.592c2.268-1.791,4.84-3.244,7.403-4.604
		c49.782-26.4,99.586-52.759,149.379-79.138c20.963-11.105,41.931-22.203,62.856-33.376c5.36-2.862,10.521-2.865,15.866,0.001
		c14.113,7.568,28.271,15.052,42.422,22.55c40.157,21.277,80.319,42.545,120.48,63.815c17.26,9.141,34.537,18.25,51.762,27.454
		c2.017,1.077,3.914,2.502,5.586,4.066c2.543,2.378,2.91,5.425,1.717,8.619c-1.189,3.184-3.464,5.259-6.831,5.913
		c-1.398,0.271-2.862,0.281-4.298,0.282C394.862,153.591,322.103,153.59,249.343,153.59z M428.794,134.864
		c0.022-0.072,0.045-0.145,0.066-0.217c-0.873-0.542-1.744-1.088-2.619-1.627c-5.887-3.624-11.649-7.47-17.689-10.816
		c-9.675-5.361-19.539-10.38-29.313-15.562c-41.14-21.812-82.292-43.601-123.392-65.488c-4.771-2.54-9.165-2.494-13.869,0.007
		c-35.615,18.929-71.284,37.755-106.894,56.697c-20.978,11.158-42.234,21.805-62.648,34.003c-1.588,0.949-3.199,1.86-4.8,2.789
		c0.026,0.072,0.053,0.144,0.079,0.216C188.075,134.864,308.435,134.864,428.794,134.864z"/>
	<path fill-rule="evenodd" clip-rule="evenodd" fill="#0EB05B" d="M338.53,282.793c0-13.719,0.015-27.438-0.006-41.157
		c-0.016-11.118-0.061-22.236-0.123-33.354c-0.024-4.403-1.635-8.082-5.105-10.91c-0.889-0.725-1.705-1.587-2.392-2.507
		c-4.101-5.494-1.04-13.053,5.729-14.181c1.02-0.17,2.066-0.243,3.102-0.244c15.318-0.015,30.637-0.01,45.956-0.01
		c9.319,0,18.638-0.011,27.957,0.007c2.793,0.005,5.408,0.635,7.509,2.625c3.407,3.229,3.795,8.294,0.865,11.939
		c-0.818,1.019-1.813,1.916-2.815,2.764c-3.086,2.614-4.701,5.907-4.715,9.953c-0.032,9.719-0.054,19.438-0.063,29.157
		c-0.025,28.158-0.049,56.317-0.058,84.475c-0.004,10.479,0.033,20.959,0.059,31.438c0.004,1.68,0.068,3.358,0.052,5.037
		c-0.039,4.086,1.68,7.321,4.71,9.951c0.844,0.732,1.703,1.461,2.453,2.283c2.375,2.607,2.918,5.61,1.744,8.92
		c-1.176,3.311-3.558,5.232-6.968,5.893c-0.857,0.166-1.747,0.229-2.622,0.229c-20.24,0.026-40.479,0.039-60.717,0.048
		c-4.68,0.002-9.359-0.013-14.039-0.042c-4.679-0.027-8.146-2.291-9.505-6.135c-1.028-2.912-0.617-5.613,1.238-8.049
		c0.77-1.01,1.642-1.986,2.626-2.781c3.467-2.807,4.912-6.508,4.998-10.838c0.061-3.038,0.063-6.078,0.066-9.117
		c0.024-19.719,0.042-39.437,0.062-59.155C338.531,286.952,338.53,284.872,338.53,282.793z M395.685,366.311
		c0-55.773,0-111.38,0-167.022c-12.773,0-25.463,0-38.256,0c0,0.534,0,0.969,0,1.404c0,54.714,0.005,109.428-0.031,164.141
		c0,1.273,0.396,1.504,1.557,1.5c11.759-0.039,23.518-0.023,35.276-0.023C394.667,366.311,395.104,366.311,395.685,366.311z"/>
	<path fill-rule="evenodd" clip-rule="evenodd" fill="#0EB05B" d="M248.88,385.109c-11.798,0-23.595,0.002-35.393-0.004
		c-1.238,0-2.478-0.027-3.715-0.084c-6.477-0.299-10.555-7.744-7.223-13.324c0.804-1.345,1.94-2.546,3.112-3.604
		c3.396-3.067,5.208-6.757,5.203-11.392c-0.019-18.315,0.021-36.631,0.045-54.947c0.015-11.957,0.056-23.914,0.055-35.871
		c-0.001-12.757-0.032-25.514-0.058-38.271c-0.012-6.358-0.031-12.716-0.06-19.074c-0.02-4.421-1.751-8.057-5.074-10.955
		c-0.542-0.473-1.088-0.948-1.572-1.476c-2.608-2.843-3.704-6.035-2.17-9.799c1.545-3.793,4.495-5.62,8.463-5.819
		c2.873-0.145,5.757-0.097,8.636-0.096c13.316,0.004,26.634,0.026,39.951,0.035c8.758,0.006,17.515-0.018,26.272,0.021
		c1.307,0.005,2.634,0.174,3.913,0.447c3.283,0.7,5.422,2.727,6.533,5.888c0.93,2.644,0.697,5.15-0.975,7.404
		c-0.898,1.211-1.897,2.407-3.061,3.351c-3.478,2.822-4.933,6.535-4.941,10.855c-0.067,31.313-0.104,62.625-0.132,93.938
		c-0.018,18.516-0.001,37.032-0.005,55.549c-0.002,4.632,1.838,8.26,5.748,10.822c3.36,2.201,4.632,5.664,3.554,9.484
		c-1.169,4.143-4.254,6.713-8.241,6.834c-1.797,0.056-3.597,0.083-5.395,0.084C271.194,385.113,260.037,385.109,248.88,385.109z
		 M229.749,199.197c0,0.479,0,0.833,0,1.188c0,54.874,0.003,109.748-0.023,164.622c-0.001,1.085,0.334,1.327,1.361,1.323
		c11.839-0.032,23.678-0.037,35.516,0.006c1.17,0.004,1.451-0.341,1.45-1.48c-0.027-54.754-0.024-109.508-0.024-164.263
		c0-0.457,0-0.914,0-1.396C255.19,199.197,242.563,199.197,229.749,199.197z"/>
	<path fill-rule="evenodd" clip-rule="evenodd" fill="#0EB05B" d="M120.963,180.43c12.277,0,24.555-0.017,36.832,0.022
		c1.384,0.005,2.809,0.167,4.143,0.523c6.523,1.745,8.827,9.089,4.489,14.255c-0.791,0.942-1.73,1.773-2.676,2.566
		c-2.967,2.489-4.511,5.604-4.511,9.514c-0.007,40.432-0.036,80.865-0.048,121.296c-0.003,9.838,0.064,19.676,0.041,29.513
		c-0.009,3.927,1.624,7.003,4.486,9.55c0.953,0.85,1.944,1.682,2.763,2.651c2.251,2.67,2.81,5.708,1.521,8.975
		c-1.286,3.259-3.787,5.188-7.212,5.577c-2.809,0.318-5.665,0.261-8.501,0.266c-9.157,0.016-18.315-0.027-27.474-0.026
		c-11.678,0.001-23.355,0.038-35.033,0.026c-2.516-0.003-5.044-0.013-7.543-0.257c-4.379-0.427-7.108-2.721-8.243-6.568
		c-0.758-2.569-0.374-4.935,1.266-7.024c0.907-1.156,1.878-2.326,3.031-3.217c3.583-2.766,4.89-6.51,4.925-10.83
		c0.055-6.717,0.065-13.436,0.066-20.154c0.006-34.514,0.011-69.027-0.002-103.542c-0.004-8.556-0.051-17.111-0.124-25.667
		c-0.035-4.121-1.763-7.476-4.853-10.172c-0.9-0.786-1.82-1.582-2.568-2.505c-4.37-5.392-1.318-13.38,5.531-14.519
		c0.98-0.163,1.986-0.242,2.981-0.243C96.489,180.424,108.726,180.43,120.963,180.43z M140.204,366.629c0-55.914,0-111.607,0-167.37
		c-12.74,0-25.396,0-38.084,0c-0.06,0.278-0.144,0.506-0.154,0.739c-0.151,3.194-0.417,6.388-0.419,9.582
		c-0.026,48.113-0.019,96.227-0.021,144.34c0,0.999-0.015,2-0.064,2.997c-0.182,3.673,1.595,6.38,4.391,8.444
		c0.872,0.645,2.125,0.969,3.233,1.059c2.466,0.197,4.951,0.195,7.429,0.202c7.439,0.021,14.878,0.007,22.316,0.007
		C139.261,366.629,139.689,366.629,140.204,366.629z"/>
	<path fill-rule="evenodd" clip-rule="evenodd" fill="#0EB05B" d="M249.07,461.11c72.395,0,144.789-0.001,217.184,0
		c4.575,0,7.612,1.889,9.224,5.726c2.326,5.539-1.615,11.958-7.611,12.389c-0.559,0.041-1.119,0.043-1.679,0.043
		c-144.27,0.002-288.539,0.004-432.809-0.019c-1.666,0-3.351-0.208-4.995-0.499c-4.578-0.811-6.623-4.252-6.805-8.623
		c-0.164-3.984,2.73-7.751,6.634-8.645c1.691-0.387,3.486-0.369,5.237-0.434c1.476-0.056,2.957,0.058,4.436,0.059
		C108.28,461.11,178.675,461.109,249.07,461.11z"/>
	<path fill-rule="evenodd" clip-rule="evenodd" fill="#0EB05B" d="M248.645,432.149c-52.077,0-104.154,0.006-156.231-0.003
		c-14.438-0.004-28.876-0.032-43.313-0.102c-1.704-0.009-3.453-0.168-5.1-0.583c-4.071-1.026-6.808-4.943-6.54-9.063
		c0.282-4.334,3.575-7.934,7.823-8.446c1.583-0.191,3.188-0.271,4.783-0.271c132.433-0.013,264.865-0.014,397.298,0.011
		c1.906,0,3.846,0.17,5.713,0.545c4.303,0.861,6.769,3.785,7.063,8.084c0.274,3.995-2.18,7.84-6.04,9.124
		c-1.411,0.47-2.974,0.677-4.466,0.677C382.637,432.154,315.641,432.149,248.645,432.149z"/>
</g>
</svg>
