<svg xmlns="http://www.w3.org/2000/svg" width="20" height="20" viewBox="0 0 20 20">
  <path id="buy-sell-active" d="M361.275,729.25l2.912-5h11.607l2.974,5Zm17.475,2.5c-.009.863-1,1.251-1.875,1.25-1,0-1.909-.609-1.909-1.25h-.591c0,.631-1.119,1.25-2.083,1.25-.924,0-2-.639-2-1.25h-.606c0,.631-1.094,1.25-2.017,1.25-.964,0-2.064-.444-2.064-1.25h-.592c0,.629-.965,1.269-1.892,1.269s-1.872-.406-1.872-1.269V730.5h17.5v1.25Zm-.625,6.25H361.877l0-3.75H363.1a2.827,2.827,0,0,0,2.186-1.515,2.884,2.884,0,0,0,2.351,1.515,2.641,2.641,0,0,0,2.35-1.385,2.638,2.638,0,0,0,2.309,1.385,2.877,2.877,0,0,0,2.368-1.609c.567.938,1.024,1.609,2.208,1.609.183,0,1.09.03,1.25,0V738Zm0,2.5a1.342,1.342,0,0,1-1.368,1.25H363.223a1.321,1.321,0,0,1-1.346-1.25v-1.25h16.248v1.25ZM376.346,723H363.633L360,729.25v2.5a3.146,3.146,0,0,0,.626,1.875l.019,6.875a2.54,2.54,0,0,0,2.578,2.5h13.534a2.575,2.575,0,0,0,2.618-2.5v-6.875A2.616,2.616,0,0,0,380,731.75v-2.5L376.346,723Z" transform="translate(-360 -723)" fill="#ffa900" fill-rule="evenodd"/>
</svg>
