<svg xmlns="http://www.w3.org/2000/svg" width="20" height="20" viewBox="0 0 20 20">
  <path id="top-left-menu" d="M20,22a2,2,0,1,1,2-2A2,2,0,0,1,20,22Zm0-8a2,2,0,1,1,2-2A2,2,0,0,1,20,14Zm0-8a2,2,0,1,1,2-2A2,2,0,0,1,20,6ZM12,22a2,2,0,1,1,2-2A2,2,0,0,1,12,22Zm0-8a2,2,0,1,1,2-2A2,2,0,0,1,12,14Zm0-8a2,2,0,1,1,2-2A2,2,0,0,1,12,6ZM4,22a2,2,0,1,1,2-2A2,2,0,0,1,4,22Zm0-8a2,2,0,1,1,2-2A2,2,0,0,1,4,14ZM4,6A2,2,0,1,1,6,4,2,2,0,0,1,4,6Z" transform="translate(-2 -2)" fill="#fff" fill-rule="evenodd"/>
</svg>
