<?xml version="1.0" encoding="utf-8"?>
<!-- Generator: Adobe Illustrator 23.0.6, SVG Export Plug-In . SVG Version: 6.00 Build 0)  -->
<svg version="1.1" id="Capa_1" xmlns="http://www.w3.org/2000/svg" xmlns:xlink="http://www.w3.org/1999/xlink" x="0px" y="0px"
	 viewBox="0 0 512 512" style="enable-background:new 0 0 512 512;" xml:space="preserve">
<style type="text/css">
	.st0{fill:#EBEBEB;}
</style>
<g>
	<g>
		<path class="st0" d="M465.5,372.4h-23.3V186.2C442.2,83.5,358.7,0,256,0S69.8,83.5,69.8,186.2v186.2H46.5
			c-12.9,0-23.3,10.4-23.3,23.3s10.4,23.3,23.3,23.3h23.3h93.1c0,51.3,41.8,93.1,93.1,93.1s93.1-41.8,93.1-93.1h93.1h23.3
			c12.9,0,23.3-10.4,23.3-23.3S478.3,372.4,465.5,372.4z M256,465.5c-25.7,0-46.5-20.9-46.5-46.5h93.1
			C302.5,444.6,281.7,465.5,256,465.5z M395.6,372.4h-46.5H162.9h-46.5V186.2c0-77,62.6-139.6,139.6-139.6s139.6,62.6,139.6,139.6
			V372.4z"/>
	</g>
</g>
</svg>
