<svg xmlns="http://www.w3.org/2000/svg" width="23.158" height="20" viewBox="0 0 23.158 20">
  <path id="wallet-active" d="M276.579,2311.316v-4.737A1.579,1.579,0,0,0,275,2305H256.579a1.579,1.579,0,0,0-1.579,1.579v16.842a1.579,1.579,0,0,0,1.579,1.579H275a1.579,1.579,0,0,0,1.579-1.579v-4.737a1.579,1.579,0,0,0,1.579-1.579v-4.211A1.579,1.579,0,0,0,276.579,2311.316Zm-1.579,12.1H256.579v-16.842H275v4.737h-2.632a1.579,1.579,0,0,0-1.579,1.579v4.211a1.579,1.579,0,0,0,1.579,1.579H275Zm1.579-6.316h-4.211v-4.211h4.211Zm-2.105-1.316a.79.79,0,1,0-.789-.79A.79.79,0,0,0,274.474,2315.79Z" transform="translate(-255 -2305)" fill="#ffa900" fill-rule="evenodd"/>
</svg>
